<svg xmlns="http://www.w3.org/2000/svg" width="119.644" height="190.999" viewBox="0 0 119.644 190.999">
  <g id="logo" transform="translate(7912.622 10703.449)">
    <g id="Group_1874" data-name="Group 1874" transform="translate(-7912.622 -10703.449)">
      <path id="Path_217" data-name="Path 217" d="M119.5,55.545a45.882,45.882,0,0,0-.776-5.826,51.107,51.107,0,0,0-3.449-12.288,56.456,56.456,0,0,0-3.95-7.983,66.67,66.67,0,0,0-5.7-8.064,53.061,53.061,0,0,0-6.836-6.931A58.877,58.877,0,0,0,91.54,9.132,68.732,68.732,0,0,0,82.7,4.544a56.463,56.463,0,0,0-9.544-3.077A65.237,65.237,0,0,0,65.012.2,82.155,82.155,0,0,0,56.56.024a32.4,32.4,0,0,0-5.977.686,57.882,57.882,0,0,0-7.062,1.475,84.592,84.592,0,0,0-8.7,3.246,60.567,60.567,0,0,0-7.732,4.25,57.293,57.293,0,0,0-8.375,6.65,58.354,58.354,0,0,0-7.552,8.691A60.391,60.391,0,0,0,3.641,39.251a61.485,61.485,0,0,0-2.279,7.767,65.7,65.7,0,0,0-1.27,9.2C-.09,58.6.055,60.97.055,63.345a41.572,41.572,0,0,0,.821,6.709,49.693,49.693,0,0,0,1.977,8.307c.714,2.053,1.512,4.082,2.407,6.075a58.955,58.955,0,0,0,14.322,19.524,60.813,60.813,0,0,0,11.246,8.014,59.772,59.772,0,0,0,7.755,3.605c.5.191.914.419,1.025,1.045,1.039,5.89,2.12,11.771,3.144,17.663a15,15,0,0,0,2.117,6.059,12.153,12.153,0,0,0,5.122,4.3,11.467,11.467,0,0,0,5.86,1.012c2.029-.19,4.016-.651,6.018-1.01,8.671-1.555,17.344-3.1,26.006-4.707,2.476-.459,5.02-.631,7.363-1.727a11.85,11.85,0,0,0,4.864-4.143,12.22,12.22,0,0,0,1.825-9.454c-1.159-6.2-2.244-12.4-3.376-18.605a1.069,1.069,0,0,1,.348-1.126c.562-.487,1.116-.984,1.653-1.5a61.98,61.98,0,0,0,11.092-14.012,59.851,59.851,0,0,0,6.709-17.5,56.191,56.191,0,0,0,1.239-10.24A45.672,45.672,0,0,0,119.5,55.545ZM41.616,34.308c-6.71,5.86-9.15,10.238-9.174,10.281l-.414.755-.292-.81A27.164,27.164,0,0,0,22.1,31.852c-.207-.154-.344-.256-.429-.33-.354-.31-1.518-.137-2.193.078l-.236-.74c.349-.111,2.131-.629,2.939.078.062.054.2.159.382.292A29.3,29.3,0,0,1,27.078,35.3a27.15,27.15,0,0,1,5.107,8.223,48.753,48.753,0,0,1,8.879-9.761,89.576,89.576,0,0,1,13.867-9.83A132.564,132.564,0,0,1,76.966,13.841l.261.731C59.021,21.081,47.812,28.9,41.616,34.308Z" fill="#ffc54b"/>
      <path id="Path_218" data-name="Path 218" d="M5.062,13.474c4.771-.782,9.531-1.631,14.29-2.485,6.737-1.209,13.468-2.446,20.2-3.67,4.66-.847,9.325-1.665,13.977-2.551A8.9,8.9,0,0,0,57.87,2.762c.956-.852.722-1.841-.479-2.274A6.794,6.794,0,0,0,54.664.014a13.067,13.067,0,0,0-1.9.094Q37.976,2.772,23.185,5.426c-6.173,1.114-12.347,2.226-18.51,3.4A8.176,8.176,0,0,0,.348,10.991,1.028,1.028,0,0,0,.034,12.05,1.416,1.416,0,0,0,1.174,13.1,8.429,8.429,0,0,0,5.062,13.474Z" transform="translate(49.944 159.311)" fill="#ffc54b"/>
      <path id="Path_219" data-name="Path 219" d="M55.368.6a8.117,8.117,0,0,0-4.9-.413c-4.58.731-9.142,1.575-13.707,2.4Q26.286,4.462,15.816,6.375C11.961,7.081,8.079,7.653,4.263,8.56A7.234,7.234,0,0,0,.432,10.577a1.13,1.13,0,0,0,.381,1.976,10.642,10.642,0,0,0,3.562.661c.346-.038.694-.055,1.035-.117Q18.3,10.78,31.19,8.455c6.689-1.2,13.384-2.377,20.067-3.62a8.036,8.036,0,0,0,4.476-2.189C56.534,1.815,56.4,1.094,55.368.6Z" transform="translate(52.154 164.465)" fill="#ffc54b"/>
      <path id="Path_220" data-name="Path 220" d="M.393,10.59a1.086,1.086,0,0,0,.295,1.85,5.725,5.725,0,0,0,1.029.419,9.094,9.094,0,0,0,4.421.072q8.869-1.543,17.726-3.155,13.363-2.409,26.72-4.851a9.157,9.157,0,0,0,5.089-2.257c.9-.905.706-1.743-.517-2.186a6.243,6.243,0,0,0-2.68-.461,13.61,13.61,0,0,0-2.092.1q-8.347,1.5-16.7,2.993C26.951,4.327,20.213,5.532,13.482,6.771c-3.1.57-6.225.989-9.281,1.759A7.387,7.387,0,0,0,.393,10.59Z" transform="translate(49.905 154.536)" fill="#ffc54b"/>
      <path id="Path_221" data-name="Path 221" d="M1.031,11.957a11.293,11.293,0,0,0,3.066.53c.592-.071,1.188-.112,1.772-.216q11.352-2.024,22.7-4.065,4.246-.762,8.492-1.534C40.478,6.046,43.9,5.457,47.3,4.76a6.991,6.991,0,0,0,3.906-2.013A1.175,1.175,0,0,0,50.878.694a6.765,6.765,0,0,0-4.27-.588c-3.552.552-7.086,1.222-10.624,1.861Q24.636,4.016,13.291,6.082c-3.049.554-6.1,1.081-9.144,1.688a7.488,7.488,0,0,0-3.54,1.8A1.309,1.309,0,0,0,1.031,11.957Z" transform="translate(51.261 149.83)" fill="#ffc54b"/>
      <path id="Path_222" data-name="Path 222" d="M50.68.513A5.047,5.047,0,0,0,48.011.03a22.534,22.534,0,0,0-5.237.649q-13,2.317-25.987,4.7C12.713,6.122,8.633,6.84,4.57,7.636A7.5,7.5,0,0,0,.591,9.521c-.924.913-.757,1.885.449,2.38a7.609,7.609,0,0,0,4.245.412c8.059-1.419,16.108-2.89,24.162-4.34,5.711-1.028,11.425-2.035,17.133-3.082a8.468,8.468,0,0,0,4.521-2.1C51.99,1.931,51.817,1.023,50.68.513Z" transform="translate(55.368 169.889)" fill="#ffc54b"/>
      <path id="Path_223" data-name="Path 223" d="M.5,8.638a1.37,1.37,0,0,0,.354,2.326,5.108,5.108,0,0,0,2.657.559,9.06,9.06,0,0,0,2.373-.2q8.9-1.575,17.794-3.2,8.749-1.58,17.5-3.171a9.192,9.192,0,0,0,4.209-1.747A1.489,1.489,0,0,0,44.929.432,8.329,8.329,0,0,0,40.614.162q-6.443,1.16-12.885,2.333Q16.16,4.577,4.59,6.652A7.851,7.851,0,0,0,.5,8.638Z" transform="translate(53.124 145.275)" fill="#ffc54b"/>
      <path id="Path_224" data-name="Path 224" d="M45.2.546A7.341,7.341,0,0,0,40.757.173Q30.65,1.967,20.547,3.8,12.932,5.167,5.318,6.546A8.715,8.715,0,0,0,.537,8.587,1.41,1.41,0,0,0,1,11.043a10.8,10.8,0,0,0,3.067.563c.288-.036.585-.058.877-.11q13.838-2.5,27.673-5.019c3.293-.6,6.616-1.04,9.88-1.8a6.592,6.592,0,0,0,3.1-1.7A1.361,1.361,0,0,0,45.2.546Z" transform="translate(58.999 175.306)" fill="#ffc54b"/>
      <path id="Path_225" data-name="Path 225" d="M3.37,9.661c.184-.028.38-.052.575-.087q6.407-1.148,12.814-2.3c4.612-.834,9.225-1.665,13.832-2.529a4.068,4.068,0,0,0,2.926-1.857A1.527,1.527,0,0,0,33.028.741,4.033,4.033,0,0,0,29.99.066Q16.556,2.5,3.116,4.887A4.489,4.489,0,0,0,.543,6.37a1.648,1.648,0,0,0,.379,2.7A6.18,6.18,0,0,0,3.37,9.661Z" transform="translate(58.667 141.185)" fill="#ffc54b"/>
      <path id="Path_226" data-name="Path 226" d="M33.055.684A4.769,4.769,0,0,0,29.468.112Q17.451,2.248,5.444,4.432A11.2,11.2,0,0,0,1.522,5.511C.111,6.352-.43,7.657.374,8.524a3.213,3.213,0,0,0,2.88,1.084c9.284-1.625,18.557-3.317,27.834-4.991a3.919,3.919,0,0,0,2.265-1.456,1.631,1.631,0,0,0,.418-1.092A1.566,1.566,0,0,0,33.055.684Z" transform="translate(65.867 181.348)" fill="#ffc54b"/>
    </g>
  </g>
</svg>
