<svg xmlns="http://www.w3.org/2000/svg" width="466.501" height="205.941" viewBox="0 0 466.501 205.941">
  <g id="content" transform="translate(0)">
    <path id="Path_1639" data-name="Path 1639" d="M-498.9,624.145a91.03,91.03,0,0,1-9.188-1.708,70.575,70.575,0,0,1-14.242-5.607c-1.05-.535-1.432-1.076-.864-2.308,2.239-4.868,4.363-9.789,6.539-14.686.967-2.177,2.008-4.323,2.913-6.525.4-.984.733-1.16,1.726-.613a34.74,34.74,0,0,0,11.342,4.364c2.931.456,5.745.241,8.186-1.727a2.505,2.505,0,0,0,.94-3.321q-14.668-36.546-29.223-73.139c-.272-.681-.567-1.352-1-2.383-1.1,2.729-2.081,5.141-3.043,7.562q-7.336,18.473-14.661,36.95c-4.382,11.075-8.771,22.147-13.081,33.25a2.913,2.913,0,0,1-3.214,2.241c-8.852-.106-17.706-.075-26.559-.02a2.384,2.384,0,0,1-2.638-1.76c-5.449-13.856-10.981-27.679-16.467-41.519q-10.232-25.813-20.429-51.639c-.758-1.917-.744-1.929,1.351-1.93,10.693,0,21.387.011,32.08-.018,1.124,0,1.792.225,2.181,1.444,2.437,7.613,4.969,15.195,7.457,22.792q4.821,14.72,9.625,29.445c.121.368.274.724.427,1.127.489-.31.487-.778.618-1.174q6.515-19.653,13.024-39.309c1.4-4.242,2.8-8.485,4.136-12.749a1.863,1.863,0,0,1,2.075-1.585q27.231.058,54.461,0a1.921,1.921,0,0,1,2.13,1.557c3.958,11.976,7.964,23.936,11.939,35.906,2,6.031,3.967,12.075,5.951,18.111.107.326.237.645.477,1.294.833-2.548,1.6-4.805,2.31-7.078q2.761-8.807,5.487-17.625,4.8-15.424,9.589-30.85a1.525,1.525,0,0,1,1.662-1.307q16.115.038,32.229.006c1.081,0,1.392.238.96,1.385q-6.879,18.248-13.672,36.529-5.527,14.78-11.07,29.555c-3.966,10.543-7.861,21.114-11.973,31.6a50.382,50.382,0,0,1-10.333,16.932,27.109,27.109,0,0,1-15.156,7.983q-1.533.269-3.064.542Z" transform="translate(884.811 -418.204)" fill="#f9fef9"/>
    <path id="Path_1640" data-name="Path 1640" d="M-1044.433,510.991c.392-2.79.577-5.6,1.109-8.378a62.087,62.087,0,0,1,13.116-28.179c10.164-12.372,23.32-19.615,38.939-22.58a75.425,75.425,0,0,1,18.08-1.173c11.268.594,22.089,3,32.09,8.479a87.665,87.665,0,0,1,13.1,9.006.833.833,0,0,1,.156,1.379q-5.358,6.372-10.681,12.773c-2.663,3.2-5.341,6.386-7.952,9.628-.817,1.015-1.364,1.425-2.6.4-6.092-5.048-12.9-8.708-20.779-10.1-9.116-1.609-17.7-.471-25.362,5.092a32.107,32.107,0,0,0-12.948,20.539c-1.813,9.414-.681,18.494,4.454,26.818a30.78,30.78,0,0,0,18.021,13.53,32.763,32.763,0,0,0,10.566,1.463c6.234-.212,12.346-1.117,17.858-4.407a2.046,2.046,0,0,0,1.134-2.029c-.034-3.929-.051-7.858.007-11.787.018-1.233-.4-1.639-1.632-1.631-6.814.044-13.627.022-20.442.019-2.115,0-2.121-.007-2.122-2.172,0-7.112.03-14.225-.026-21.336-.012-1.43.318-2.014,1.9-2.01q26.708.076,53.416.006c1.445,0,1.866.471,1.863,1.887q-.058,26.334-.009,52.67a2.714,2.714,0,0,1-1.125,2.388,83.61,83.61,0,0,1-28.608,14.877,84.515,84.515,0,0,1-29.9,3.165c-14.137-.9-27.152-5.307-38.354-14.19a59.977,59.977,0,0,1-22.146-36.964c-.537-2.827-.694-5.691-1.118-8.526Z" transform="translate(1044.433 -399.663)" fill="#f9fef9"/>
    <path id="Path_1641" data-name="Path 1641" d="M-809.607,368.707c2.246.328,4.507.562,6.717,1.113a37.4,37.4,0,0,1,14.28,7.374c.851.678,1.63,1.446,2.465,2.145.668.559.794,1.069.048,1.677a17.712,17.712,0,0,0-1.272,1.258c-1.834,1.834-1.851,1.852-3.8.075A31.824,31.824,0,0,0-810,373.8a28.878,28.878,0,0,0-20.476,5.439A29.635,29.635,0,0,0-842.3,397.906c-2.007,10.07-.446,19.555,5.762,27.9a28.259,28.259,0,0,0,19.743,11.48,30.361,30.361,0,0,0,23.371-6.537,33.331,33.331,0,0,0,4.053-3.482c.551-.592.942-.627,1.59-.061.969.849,2.468,1.53,2.672,2.675.216,1.218-1.486,1.772-2.348,2.56a36.282,36.282,0,0,1-21.149,9.842,36.723,36.723,0,0,1-21.317-3.8,34.037,34.037,0,0,1-15.16-15.995,37.881,37.881,0,0,1-3.663-19.505,37.335,37.335,0,0,1,8.423-21.494,34.571,34.571,0,0,1,19.917-12.1c1.491-.321,3.022-.455,4.535-.675Z" transform="translate(970.48 -368.707)" fill="#60523a"/>
    <path id="Path_1642" data-name="Path 1642" d="M-313.015,396.061q-7.977.048-15.956.093c-2.153.011-2.156,0-2.156,2.081q0,16.113,0,32.224c0,5.476,3.553,9,9.015,9.1a17.4,17.4,0,0,0,7.835-1.351c.831-.387,1.087-.065,1.053.733,0,.05,0,.1,0,.149-.116,4.069.818,3.627-3.382,4.748-5.125,1.367-10.123,1.013-14.648-2.128-2.821-1.958-4.174-4.809-4.824-8.072a23.988,23.988,0,0,1-.321-4.739q.02-15.367.006-30.733c0-2.009,0-2.01-2.073-2.012-1.293,0-2.588-.043-3.879.011-1.047.044-1.541-.282-1.523-1.427.06-3.821-.3-3.185,3.12-3.247.945-.017,1.894-.063,2.833.012,1.176.094,1.557-.364,1.543-1.536-.053-4.425.036-8.853-.052-13.277-.03-1.5.417-2,1.936-1.945,3.877.141,3.319-.437,3.35,3.326.031,3.729.006,7.459.007,11.188,0,2.227,0,2.219,2.305,2.231q7.9.039,15.806.093Z" transform="translate(779.516 -370.989)" fill="#60523a"/>
    <path id="Path_1643" data-name="Path 1643" d="M-780.1,517.05c0,4.625-.052,9.25.03,13.873.026,1.494-.425,1.991-1.945,1.965a31.276,31.276,0,0,0-15.68,3.359,21,21,0,0,0-9.251,10.15,39.949,39.949,0,0,0-3.311,17.1c.047,9.65.014,19.3.012,28.951,0,2.183-.006,2.19-2.1,2.191q-15,0-30,0c-2.034,0-2.042-.01-2.042-2.1q0-45.888,0-91.776c0-2.035.01-2.043,2.1-2.043q15,0,30,0c2.036,0,2.043.01,2.044,2.1,0,5.071,0,10.143,0,15.673,1.042-1.88,1.841-3.414,2.723-4.9,3.418-5.756,7.959-10.266,14.354-12.622a30.51,30.51,0,0,1,11.853-1.75c.905.035,1.229.443,1.214,1.295-.021,1.193.052,2.39-.012,3.58s.39,1.332,1.413.969a85.96,85.96,0,0,1,14.043-3.9A91.234,91.234,0,0,1-749,497.521c6.153.006,12.313-.205,18.417.895,7.685,1.384,14.829,3.9,20.9,9.068,6.423,5.462,9.7,12.52,11.082,20.65a76.454,76.454,0,0,1,.892,13.045q-.05,25.593-.014,51.185c0,2.272,0,2.275-2.319,2.275q-14.624,0-29.249,0c-1.963,0-1.971-.015-1.976-2.019-.006-2.272,0-4.543,0-7.059-1.721,1.431-3.19,2.729-4.737,3.925a34,34,0,0,1-17.77,6.977c-7.379.744-14.564.219-21.417-2.889-8.25-3.742-13.517-10.012-15.382-18.852a34.382,34.382,0,0,1,.917-18.809,25.389,25.389,0,0,1,11.541-13.739,41.96,41.96,0,0,1,17.967-5.289,71.679,71.679,0,0,1,27.925,2.943c.861.273,1.319.182,1.254-.876-.326-5.311-1.89-9.962-6.845-12.77a21.337,21.337,0,0,0-9.7-2.55,64.513,64.513,0,0,0-22.736,3.111c-1.652.53-3.263,1.19-4.886,1.81-.846.323-1.3.246-1.583-.8-.974-3.588-2.079-7.14-3.134-10.705Zm49.432,41.614c0-3.271-.009-3.256-3.133-4.058a48.936,48.936,0,0,0-7-1.235,21.386,21.386,0,0,0-12.38,2.114c-6.689,3.423-7.543,13.808-1.093,17.98,4.911,3.176,14.07,2.15,18.607-2.084C-731.939,567.9-730.635,563.57-730.664,558.665Z" transform="translate(968.785 -417.293)" fill="#f9fef9"/>
    <path id="Path_1644" data-name="Path 1644" d="M-485.892,429.176q-9.844,0-19.688,0c-1.67,0-1.941.315-1.654,1.918A23.055,23.055,0,0,0-502,442.739a18.976,18.976,0,0,0,13.24,6.546,22.435,22.435,0,0,0,16.2-5.052c.5-.4.95-.871,1.454-1.268.639-.5,1.15-1.756,1.882-1.425a7.9,7.9,0,0,1,3.129,2.677c.319.456-.174.714-.422.981a26.787,26.787,0,0,1-15.98,8.715c-7.437,1.1-14.311-.259-20.32-4.976a25.475,25.475,0,0,1-9.385-15.248,29.912,29.912,0,0,1,2.3-19.992c3.785-7.556,9.764-12.348,18.263-13.671a22.4,22.4,0,0,1,16.561,3.621,24.111,24.111,0,0,1,9.246,12.777,31.812,31.812,0,0,1,1.555,10.978c-.031,1.335-.391,1.814-1.779,1.8C-472.667,429.142-479.28,429.176-485.892,429.176Zm-2.665-4.665c5.271,0,10.542.019,15.813-.007,3.122-.015,3.185.462,2.555-2.948-1.088-5.888-3.355-11.158-8.72-14.423a16.966,16.966,0,0,0-17.822-.483c-6.276,3.42-9.3,9.244-10.527,16.1-.217,1.211.125,1.8,1.546,1.785C-499.995,424.47-494.276,424.511-488.557,424.511Z" transform="translate(843.455 -380.432)" fill="#60523a"/>
    <path id="Path_1645" data-name="Path 1645" d="M-744.114,427.126a26.956,26.956,0,0,1,9.292-20.919,24.832,24.832,0,0,1,13-6.135,26.012,26.012,0,0,1,19.665,4.321A26.349,26.349,0,0,1-690.781,424.2a26.983,26.983,0,0,1-5.2,19.162,25.714,25.714,0,0,1-17.709,10.6,25.641,25.641,0,0,1-18.557-4.14,25.967,25.967,0,0,1-11.6-18.551c-.072-.488-.234-.969-.258-1.458C-744.145,428.917-744.114,428.021-744.114,427.126Zm26.724-22.432a19.673,19.673,0,0,0-15.165,6.343,22.056,22.056,0,0,0-5.758,12.468c-.945,7.662.988,14.345,6.485,19.863a20.614,20.614,0,0,0,29.881-.813c5.184-5.822,6.628-12.695,5.256-20.209C-698.575,412.024-707.357,404.441-717.391,404.694Z" transform="translate(930.873 -380.424)" fill="#60523a"/>
    <path id="Path_1646" data-name="Path 1646" d="M-640.777,410.034c1.915-2.375,3.63-4.694,6.077-6.438a20.217,20.217,0,0,1,10.177-3.8,22.851,22.851,0,0,1,14.042,2.85c4.862,2.915,7.54,7.318,8.779,12.7a29.559,29.559,0,0,1,.637,6.791c-.037,9.6-.014,19.2-.017,28.8,0,2.091-.007,2.113-2.016,2.1-3.727-.032-3.229.448-3.237-3.256-.022-9.749.063-19.5-.04-29.246a16.748,16.748,0,0,0-4.35-11.42,14.235,14.235,0,0,0-8-4.244,17.8,17.8,0,0,0-16.7,4.8A17.236,17.236,0,0,0-640.5,421.4c-.6,9.886-.105,19.776-.274,29.662-.034,1.97-.015,1.989-1.991,1.977-3.341-.018-2.969.341-2.971-2.929q-.017-23.5,0-47c0-2.181,0-2.192,2.231-2.182,3.013.014,2.711-.267,2.729,2.727C-640.767,405.779-640.777,407.907-640.777,410.034Z" transform="translate(893.672 -380.422)" fill="#60523a"/>
    <path id="Path_1647" data-name="Path 1647" d="M-418.86,410.088c.817-1.065,1.606-2.117,2.42-3.149a18.761,18.761,0,0,1,11.945-6.893,23.314,23.314,0,0,1,14.5,1.872,18.169,18.169,0,0,1,9.423,11.167,28.184,28.184,0,0,1,1.248,9.083q-.075,14.474.012,28.948c.009,1.507-.432,1.993-1.943,1.938-3.872-.139-3.331.438-3.342-3.333-.025-9.5,0-19-.014-28.5a17.707,17.707,0,0,0-4.109-11.823,14.062,14.062,0,0,0-8.314-4.554,17.793,17.793,0,0,0-16.687,4.837,17.279,17.279,0,0,0-5.043,11.742c-.586,9.836-.107,19.677-.272,29.514-.035,2.078-.012,2.095-2.034,2.084-3.311-.018-2.926.328-2.928-2.972q-.018-23.5,0-47c0-2.135.006-2.149,2.125-2.139,3.132.015,2.815-.3,2.836,2.77.014,2.039.011,4.078.023,6.117C-419.014,409.876-418.932,409.956-418.86,410.088Z" transform="translate(809.821 -380.405)" fill="#60523a"/>
    <path id="Path_1648" data-name="Path 1648" d="M-558.126,414.42c0-5.521-.034-11.042.026-16.562.013-1.276-.317-1.815-1.67-1.721-1.485.1-2.983-.008-4.474.029-.932.023-1.356-.309-1.348-1.29.029-4.042-.3-3.305,3.131-3.377.994-.021,1.992-.053,2.983.009,1.06.065,1.376-.391,1.368-1.4-.035-4.526.032-9.053-.042-13.578-.022-1.392.463-1.805,1.805-1.766,4.077.121,3.438-.494,3.476,3.49.037,3.879.047,7.76-.015,11.638-.019,1.223.358,1.645,1.608,1.63,4.973-.058,9.948.012,14.921-.046,1.287-.016,1.762.368,1.723,1.7-.1,3.4.275,2.971-2.939,2.986-4.476.022-8.954.073-13.428-.03-1.565-.036-1.9.5-1.893,1.964.057,10.892.023,21.784.034,32.677a8.543,8.543,0,0,0,8.569,8.789,17.454,17.454,0,0,0,8.284-1.34c.838-.4,1.081-.047,1.047.741,0,.05,0,.1,0,.149-.116,4.058.821,3.615-3.389,4.745-5.018,1.347-9.935,1.011-14.409-1.959a11.519,11.519,0,0,1-5.044-8.407c-.741-5.337-.165-10.718-.322-16.077C-558.15,416.41-558.125,415.415-558.126,414.42Z" transform="translate(863.362 -370.995)" fill="#60523a"/>
    <path id="Path_1649" data-name="Path 1649" d="M-841.609,667.6c-.92,2.728-1.732,5.144-2.552,7.557-.208.613-.4,1.249-1.189,1.366a1.488,1.488,0,0,1-1.926-1.089c-1.172-3.52-2.438-7.008-3.644-10.517-.174-.5-.7-1.364-.055-1.509.776-.172,1.948-.257,2.38.87.709,1.848,1.352,3.72,2.012,5.586.262.742.5,1.494.869,2.612.615-1.772,1.129-3.227,1.625-4.689q.549-1.617,1.058-3.247c.237-.762.555-1.295,1.518-1.321.993-.027,1.26.54,1.506,1.29.785,2.4,1.594,4.789,2.387,7.186.077.233.076.5.445.667.826-2.486,1.636-4.968,2.482-7.437.169-.492.215-1.147.864-1.293a2.172,2.172,0,0,1,1.872.107c.529.445-.084.994-.247,1.466-1.165,3.366-2.386,6.713-3.54,10.083-.27.789-.583,1.284-1.528,1.286s-1.291-.469-1.564-1.257A68.451,68.451,0,0,0-841.609,667.6Z" transform="translate(971.396 -480.076)" fill="#262626"/>
    <path id="Path_1650" data-name="Path 1650" d="M-551.261,672.092c-.684,2.054-1.233,3.677-1.762,5.306-.234.721-.569,1.185-1.461,1.148a1.428,1.428,0,0,1-1.47-1.17c-.789-2.449-1.654-4.873-2.418-7.33-.138-.444-.828-1.2.153-1.456.826-.212,1.845-.383,2.208.833.537,1.8,1.053,3.6,1.594,5.464.6-1.787,1.2-3.5,1.748-5.24a1.419,1.419,0,0,1,1.474-1.165c.895-.037,1.235.431,1.453,1.155a36.3,36.3,0,0,0,1.779,4.983c.54-1.7,1.172-3.386,1.592-5.119.333-1.372,1.3-1.1,2.085-.9.965.249.269,1.017.13,1.463-.763,2.456-1.631,4.88-2.417,7.33a1.428,1.428,0,0,1-1.482,1.153c-.905.042-1.216-.451-1.448-1.165C-550.032,675.755-550.58,674.136-551.261,672.092Z" transform="translate(860.769 -482.048)" fill="#262626"/>
    <path id="Path_1651" data-name="Path 1651" d="M-815.958,667.777c1.638-1.553,3.227-1.824,4.814-.994,1.466.767,1.828,2.229,1.773,3.826-.05,1.49-.043,2.983,0,4.474.024.955-.357,1.318-1.319,1.32-1.007,0-1.29-.461-1.268-1.371.034-1.391,0-2.783,0-4.175.006-1.276-.509-2.113-1.869-2.208a2.074,2.074,0,0,0-2.087,2.076c-.083,1.487-.057,2.982-.031,4.472.016.919-.424,1.2-1.28,1.2-.839,0-1.3-.245-1.3-1.18q.033-5.667,0-11.334c-.005-.991.574-1.109,1.359-1.11s1.225.254,1.208,1.111C-815.976,665.063-815.958,666.246-815.958,667.777Z" transform="translate(959.006 -479.906)" fill="#262626"/>
    <path id="Path_1652" data-name="Path 1652" d="M-777.557,667.741c1.6-1.482,3.174-1.807,4.77-.986,1.541.794,1.87,2.309,1.811,3.952-.053,1.489-.039,2.983-.009,4.474.019.913-.409,1.211-1.272,1.207-.833,0-1.324-.229-1.305-1.171.028-1.441-.01-2.884,0-4.325.01-1.264-.463-2.13-1.828-2.249a2.091,2.091,0,0,0-2.138,2.179c-.068,1.439-.05,2.883-.022,4.324.017.885-.346,1.235-1.237,1.246-.938.012-1.355-.308-1.347-1.288q.043-5.518,0-11.036c-.007-.96.369-1.31,1.325-1.313,1.013,0,1.29.473,1.261,1.377C-777.585,665.219-777.557,666.309-777.557,667.741Z" transform="translate(944.49 -479.9)" fill="#262626"/>
    <path id="Path_1653" data-name="Path 1653" d="M-603.812,667.6c2.88-2.008,5.44-1.584,6.276,1.06.724,2.289.292,4.728.2,7.1-.032.82-.9.57-1.459.6-.676.039-1.005-.3-1.006-.983,0-1.441,0-2.883-.019-4.324-.022-1.677-.631-2.418-1.958-2.42-1.161,0-1.981.971-2.019,2.471q-.051,2.012-.008,4.026c.019.872-.318,1.252-1.223,1.26-.925.008-1.369-.28-1.361-1.275q.045-5.518,0-11.037c-.007-.947.345-1.325,1.313-1.326,1,0,1.305.447,1.273,1.364C-603.841,665.206-603.812,666.3-603.812,667.6Z" transform="translate(878.789 -479.9)" fill="#262626"/>
    <path id="Path_1654" data-name="Path 1654" d="M-755.635,674.743c0,.744.011,1.489,0,2.233-.026,1.441-.986,2.172-2.182,1.414-.746-.473-1.065-.229-1.649.049a3.7,3.7,0,0,1-5.065-1.632,3.243,3.243,0,0,1,2.99-4.4c.69-.057,1.389.023,2.083,0,.385-.014.954.56,1.118-.147a1.138,1.138,0,0,0-.749-1.175,4.143,4.143,0,0,0-3.321.01c-.906.34-1.265-.044-1.473-.855-.144-.56-.081-.894.534-1.149a7.771,7.771,0,0,1,4.37-.5,3.821,3.821,0,0,1,3.346,4.07C-755.627,673.353-755.634,674.048-755.635,674.743Zm-5.273,2.1c1.42.04,2.691-.84,2.652-1.673-.053-1.141-1.015-1.048-1.759-1.078-.989-.04-1.995.214-2.107,1.374A1.228,1.228,0,0,0-760.908,676.845Z" transform="translate(938.687 -482.062)" fill="#262626"/>
    <path id="Path_1655" data-name="Path 1655" d="M-679.8,674.746c0,.744.011,1.489,0,2.233-.027,1.438-.992,2.172-2.184,1.41-.75-.478-1.068-.225-1.649.051a3.7,3.7,0,0,1-5.064-1.635,3.23,3.23,0,0,1,2.846-4.383c.734-.084,1.487.014,2.23-.011.384-.013.954.559,1.116-.151a1.141,1.141,0,0,0-.753-1.173,4.148,4.148,0,0,0-3.321.012c-.91.341-1.261-.052-1.47-.859-.146-.562-.076-.892.537-1.147a7.771,7.771,0,0,1,4.37-.5,3.82,3.82,0,0,1,3.344,4.072C-679.792,673.356-679.8,674.05-679.8,674.746Zm-4.191-.686c-1.089.047-2.175.177-2.293,1.428-.089.933.666,1.35,1.578,1.367,1.075.021,2.316-.87,2.293-1.7C-682.444,674.058-683.387,674.262-683.991,674.059Z" transform="translate(910.01 -482.062)" fill="#262626"/>
    <path id="Path_1656" data-name="Path 1656" d="M-526.219,674.806c0,.695.008,1.389,0,2.084-.021,1.541-.967,2.262-2.239,1.5a1.244,1.244,0,0,0-1.512.006,3.716,3.716,0,0,1-3.951-.16,3.058,3.058,0,0,1-1.374-3.36,3.58,3.58,0,0,1,3.073-2.45c.738-.064,1.487.01,2.231,0,.354,0,.836.492,1.037-.068a1.04,1.04,0,0,0-.639-1.21,3.976,3.976,0,0,0-3.31-.068c-.7.243-1.244.251-1.505-.591-.215-.7-.2-1.139.663-1.46a8.377,8.377,0,0,1,3.941-.469,3.844,3.844,0,0,1,3.586,4.011C-526.208,673.317-526.219,674.061-526.219,674.806Zm-5.241,2.063c1.481-.009,2.727-.946,2.622-1.762-.142-1.1-1.1-.985-1.84-1-.993-.02-1.991.261-2.028,1.449A1.238,1.238,0,0,0-531.46,676.868Z" transform="translate(851.937 -482.074)" fill="#262626"/>
    <path id="Path_1657" data-name="Path 1657" d="M-729.666,678.875a5.075,5.075,0,0,1-5.34-5.3,4.965,4.965,0,0,1,5.416-5.039,4.734,4.734,0,0,1,4.318,4.492c.034.917-.248,1.394-1.254,1.367-1.588-.042-3.179-.013-4.768,0-.333,0-.746-.1-.947.267-.228.422.081.774.31,1.071a2.652,2.652,0,0,0,3.3.944c.46-.174.874-.467,1.323-.675.714-.33.935.354,1.3.688.487.445-.009.654-.274.914A4.751,4.751,0,0,1-729.666,678.875Zm-.247-6.465c.583-.14,1.392.307,1.986-.243.268-.247-.1-.687-.335-.882a2.641,2.641,0,0,0-2.589-.663,1.825,1.825,0,0,0-.654.331c-.353.31-.95.575-.75,1.137.18.506.77.279,1.19.314C-730.723,672.432-730.377,672.409-729.913,672.409Z" transform="translate(927.425 -482.083)" fill="#262626"/>
    <path id="Path_1658" data-name="Path 1658" d="M-585.761,678.874a5.066,5.066,0,0,1-5.257-5.232,4.962,4.962,0,0,1,5.35-5.107,4.71,4.71,0,0,1,4.385,4.577c.011.858-.267,1.3-1.188,1.28-1.589-.029-3.18-.011-4.769.006-.379,0-.877-.131-1.049.338-.146.4.141.764.393,1.068a2.662,2.662,0,0,0,3.327.844,11.535,11.535,0,0,0,1.188-.614c.719-.4.952.28,1.32.609.567.507,0,.733-.3,1.019A4.732,4.732,0,0,1-585.761,678.874Zm-.258-6.463a1.776,1.776,0,0,0,.442-.006c.559-.149,1.5.428,1.629-.387s-.805-1.131-1.492-1.39a1.971,1.971,0,0,0-1.579.063c-.58.279-1.348.621-1.242,1.283.122.767.977.327,1.506.429A4.034,4.034,0,0,0-586.019,672.411Z" transform="translate(872.977 -482.084)" fill="#262626"/>
    <path id="Path_1659" data-name="Path 1659" d="M-629.939,678.866a5.176,5.176,0,0,1-5.232-5.151,5.253,5.253,0,0,1,5.394-5.181,5.175,5.175,0,0,1,5.232,5.151A5.253,5.253,0,0,1-629.939,678.866Zm2.819-5.181a2.977,2.977,0,0,0-2.858-3.163c-1.5-.017-2.624,1.349-2.618,3.193a2.978,2.978,0,0,0,2.858,3.163C-628.235,676.9-627.115,675.53-627.12,673.686Z" transform="translate(889.672 -482.086)" fill="#262626"/>
    <path id="Path_1660" data-name="Path 1660" d="M-669.966,669.875c1.552-1.483,3.089-1.728,4.64-.977a3.568,3.568,0,0,1,1.859,3.613c-.029,1.588-.04,3.178,0,4.765.024.984-.416,1.294-1.349,1.284-.891-.011-1.252-.361-1.234-1.245.029-1.439,0-2.879,0-4.318,0-1.279-.528-2.135-1.884-2.179-1.374-.045-1.963.913-2.061,2.079a44.157,44.157,0,0,0-.042,4.465c.016.92-.428,1.2-1.281,1.195s-1.306-.244-1.3-1.177c.024-2.432-.009-4.865.011-7.3.006-.653-.2-1.493.89-1.543C-670.869,668.5-669.94,668.337-669.966,669.875Z" transform="translate(903.832 -482.067)" fill="#262626"/>
    <path id="Path_1661" data-name="Path 1661" d="M-798.813,675.437c.746-2.069,1.473-3.86,2.024-5.7.339-1.134,1.044-1.293,2.025-1.245.677.034.9.274.64.926-1.362,3.4-2.647,6.831-4.106,10.187a3.188,3.188,0,0,1-3.949,1.837c-.519-.146-1.231-.244-1.043-1.14.165-.792.5-1,1.358-.852,1.4.244,1.929-.476,1.394-1.866-.96-2.492-2.04-4.939-3.005-7.43-.184-.474-1.046-1.2,0-1.56.81-.275,1.81-.346,2.249.8q.9,2.356,1.825,4.7C-799.256,674.458-799.086,674.813-798.813,675.437Z" transform="translate(953.508 -482.042)" fill="#262626"/>
    <path id="Path_1662" data-name="Path 1662" d="M-652.9,675.415c.745-2.058,1.411-3.9,2.078-5.738.185-.51.3-1.094.992-1.15.54-.044,1.179-.238,1.587.133.451.411-.049.935-.209,1.354-1.127,2.959-2.27,5.914-3.473,8.843-.877,2.136-2.182,2.943-4.107,2.607-.588-.1-1.378-.145-1.283-1.088.088-.869.5-1.1,1.427-.932,1.3.239,1.845-.5,1.353-1.788-.972-2.541-2.06-5.037-3.045-7.574-.176-.453-.954-1.14-.06-1.476.785-.294,1.828-.433,2.29.7.637,1.557,1.229,3.133,1.847,4.7C-653.348,674.406-653.166,674.8-652.9,675.415Z" transform="translate(898.329 -482.035)" fill="#262626"/>
    <path id="Path_1663" data-name="Path 1663" d="M-515.645,675.448c.744-2.067,1.465-3.857,2.023-5.7a1.651,1.651,0,0,1,2.008-1.27c.642.04.946.226.674.9-1.379,3.444-2.685,6.921-4.165,10.322a3.185,3.185,0,0,1-3.872,1.733c-.518-.14-1.247-.227-1.074-1.119.149-.762.444-1.047,1.333-.886,1.415.256,1.956-.455,1.428-1.831-.972-2.54-2.061-5.036-3.043-7.572-.169-.436-.99-1.119,0-1.44.746-.241,1.746-.42,2.188.636.668,1.6,1.274,3.22,1.91,4.83C-516.088,674.423-515.927,674.782-515.645,675.448Z" transform="translate(846.428 -482.038)" fill="#262626"/>
    <path id="Path_1664" data-name="Path 1664" d="M-614.093,677.229c-2.01-.026-3.081-1.057-3.135-2.934-.036-1.239,0-2.481-.014-3.721-.008-.718.129-1.411-.8-1.862a.95.95,0,0,1-.043-1.622,1.522,1.522,0,0,0,.85-1.687c-.057-.92.41-1.2,1.266-1.2.824.005,1.391.213,1.294,1.159-.117,1.146.317,1.674,1.512,1.548.659-.07,1.162.123,1.167.958s-.461,1.062-1.137.987c-1.311-.145-1.626.513-1.543,1.672.072.987.017,1.984.021,2.976a1.277,1.277,0,0,0,1.329,1.448c.539.039,1.363-.421,1.347.748-.014.959-.6,1.289-1.371,1.477A3.511,3.511,0,0,1-614.093,677.229Z" transform="translate(883.376 -480.448)" fill="#262626"/>
    <path id="Path_1665" data-name="Path 1665" d="M-702.407,677.229c-2.009-.026-3.08-1.057-3.134-2.934-.035-1.239,0-2.481-.014-3.721-.008-.718.131-1.411-.8-1.862a.95.95,0,0,1-.043-1.622,1.523,1.523,0,0,0,.85-1.686c-.057-.92.409-1.2,1.266-1.2.823.005,1.39.212,1.295,1.159-.116,1.144.315,1.675,1.511,1.548.659-.07,1.162.121,1.167.958.006.821-.461,1.062-1.137.987-1.313-.145-1.626.514-1.542,1.673.071.987.016,1.983.021,2.976a1.276,1.276,0,0,0,1.329,1.447c.539.039,1.363-.42,1.346.749-.014.959-.6,1.288-1.371,1.476A3.514,3.514,0,0,1-702.407,677.229Z" transform="translate(916.771 -480.448)" fill="#262626"/>
    <path id="Path_1666" data-name="Path 1666" d="M-745.082,675.1c.684-1.841,1.315-3.553,1.959-5.26a2.762,2.762,0,0,1,.462-.919,1.8,1.8,0,0,1,2.2-.277c.625.325,0,1-.166,1.433-.971,2.484-2.029,4.934-3.042,7.4a1.561,1.561,0,0,1-1.6,1.052A1.479,1.479,0,0,1-746.8,677.4c-.978-2.429-1.984-4.847-2.928-7.289-.181-.468-.92-1.17-.1-1.495s1.91-.441,2.367.782c.537,1.435,1.034,2.884,1.6,4.307C-745.685,674.142-745.716,674.7-745.082,675.1Z" transform="translate(933.171 -482.031)" fill="#262626"/>
    <path id="Path_1667" data-name="Path 1667" d="M-571.681,670.316c.875-.79,1.385-1.522,2.258-1.706.523-.111,1.186-.229,1.285.555.074.585.354,1.4-.578,1.593-2.592.535-2.961,2.436-2.935,4.613.007.6-.035,1.192.005,1.785.068,1-.315,1.428-1.368,1.415s-1.224-.555-1.216-1.417c.021-2.331,0-4.662.007-6.993,0-.789-.122-1.6,1.119-1.655C-571.885,668.446-571.5,668.989-571.681,670.316Z" transform="translate(866.627 -482.073)" fill="#262626"/>
    <path id="Path_1668" data-name="Path 1668" d="M-708.926,673.417c0,1.341-.023,2.681.007,4.021.021.974-.539,1.134-1.34,1.128-.762-.006-1.233-.216-1.227-1.089.017-2.582.019-5.164-.008-7.746-.01-.911.409-1.21,1.271-1.206.831,0,1.329.225,1.306,1.168C-708.949,670.933-708.925,672.175-708.926,673.417Z" transform="translate(918.534 -482.082)" fill="#262626"/>
  </g>
</svg>
