<svg xmlns="http://www.w3.org/2000/svg" width="288.781" height="211.135" viewBox="0 0 288.781 211.135">
  <g id="influencer" transform="translate(0)">
    <g id="Group_1252" data-name="Group 1252" transform="translate(54.792)">
      <g id="Group_1251" data-name="Group 1251" transform="translate(0 0)">
        <path id="Path_1614" data-name="Path 1614" d="M-3244.523,342.272c-1.116-.769-2.447-1.67-3.76-2.6-.9-.631-.307-1.3.023-1.914a30.372,30.372,0,0,1,11.979-12.1,30.228,30.228,0,0,1,21.335-3.512,30.56,30.56,0,0,1,22.415,17.174,30.442,30.442,0,0,1,2.089,20.957,31.273,31.273,0,0,1-6.436,12.767c-.687.825-1.27.91-2.1.3-1.076-.8-2.186-1.551-3.312-2.344,1.277-1.519,2.465-2.821,3.531-4.216A21.8,21.8,0,0,0-3200,338.819a34.847,34.847,0,0,0-15.051-10.077c-8.8-2.969-16.513-.869-23.019,5.514C-3240.427,336.568-3242.256,339.419-3244.523,342.272Z" transform="translate(3248.757 -321.535)" fill="#60523a"/>
        <path id="Path_1615" data-name="Path 1615" d="M-3230.139,354.648a27.994,27.994,0,0,1-3.065-2.126,1.741,1.741,0,0,1-.082-1.563,19.287,19.287,0,0,1,24.12-10.3,18.522,18.522,0,0,1,12.664,14.149c1.514,6.707-.431,12.448-4.649,17.631-.768.944-1.47,1.248-2.451.347a10.645,10.645,0,0,0-1.269-.919c-.428-.289-.869-.557-1.538-.984,5.475-4.116,7.363-9.444,5.485-15.893a15.755,15.755,0,0,0-7.226-9.112C-3214.5,341.944-3225.922,343.387-3230.139,354.648Z" transform="translate(3243.453 -327.76)" fill="#60523a"/>
      </g>
    </g>
    <path id="Path_1616" data-name="Path 1616" d="M-3332.537,452.383V380.816c10.985-.019,21.969-.012,32.953-.074a38.517,38.517,0,0,1,10.219,1.3,21.7,21.7,0,0,1,11.2,6.561c5.155,5.985,6.438,13.1,5.163,20.713-1.36,8.116-6.046,13.714-13.555,16.944-1.178.507-1.109.938-.489,1.815,1.446,2.047,2.824,4.142,4.242,6.21q5.715,8.337,11.438,16.667c.335.49.689.987,1.324.993,2.59.026,5.18.011,7.816.011-.143-.7-.659-.821-1-1.1a11.9,11.9,0,0,1-4.274-7.129c-1.094-5.7-.714-11.538-1.413-17.289-.586-4.818-.632-9.709-1.369-14.5-.7-4.56,2.754-11.489,9.273-11.4,2.613.037,5.228-.021,7.841,0,5.782.055,9.826,4.08,9.7,9.827a82.1,82.1,0,0,1-.721,10.154c-.751,5.067-.818,10.176-1.336,15.254-.2,1.919-.24,3.857-.472,5.772-.454,3.747-1.724,7.107-4.833,9.525-.262.2-.692.308-.646.854h35.955c-.25-.124-.337-.178-.432-.212-.295-.1-.594-.2-.889-.3a35.311,35.311,0,0,1-20.771-18.185,37.516,37.516,0,0,1-3.333-23.016c1.921-11.905,8.131-20.919,18.737-26.665,7.384-4,15.393-4.983,23.712-4.1a35.7,35.7,0,0,1,21.778,9.979c.673.653.757,1.054.116,1.779-2.7,3.046-5.318,6.159-8.006,9.214-1.328,1.509-1.33,1.436-2.906.092-5.688-4.847-12.094-7.576-19.729-6.45a18.738,18.738,0,0,0-12.484,7.125c-5.689,7.307-6.6,15.491-3.454,23.983,4.641,12.523,16.968,15.96,27.877,11.864a30.458,30.458,0,0,0,9-5.885c.542-.468,1.049-.991,1.7-.209,2.615,3.143,5.7,5.826,8.536,8.756.663.686.663,1.178-.021,1.818a49.252,49.252,0,0,1-9.523,7.342,60.589,60.589,0,0,1-6.743,3.014c5.062.129,10.08.129,15.1.129,3.188,0,3.188,0,3.188-3.12q0-33.034,0-66.067c0-2.33.047-2.373,2.364-2.378q5.727-.011,11.455,0c2.235.005,2.3.063,2.3,2.284q.011,11.848.006,23.7c0,2.222.044,2.263,2.314,2.264q12.161.007,24.323,0c2.024,0,2.116-.1,2.118-2.144.007-8,.033-16.007-.021-24.01-.01-1.532.439-2.128,2.05-2.119,9.887.056,19.773.039,29.659.015a2.432,2.432,0,0,1,2.4,1.337q7.478,12.689,15.066,25.314c1.177,1.969,1.181,1.942,2.377-.039q7.655-12.674,15.319-25.345a2.1,2.1,0,0,1,1.961-1.258c5.544.039,11.088.044,16.632.06v.314c-.267.386-.547.764-.8,1.16q-12.732,19.946-25.471,39.887a5.681,5.681,0,0,0-1,3.217c.032,8.266.013,16.532.019,24.8,0,2.034.1,2.128,2.132,2.131,6.435.008,12.87.038,19.3-.02,1.52-.014,2.129.419,2.127,2.04q-.054,48.261-.031,96.521c0,1.863-.294,2.052-2.087,2.031-1.65-.02-1.471-1.139-1.471-2.178q-.008-19.3,0-38.608a27.386,27.386,0,0,0-.336-4.681c-2.261-13.213-11.989-19.234-24.829-17.4-5.478.784-9.708,3.893-13.173,8.108-.364.442-.657,1.045-1.534,1.1v-1.955c0-9.05-.025-18.1.023-27.151.008-1.478-.453-2.049-1.979-2.023-4.341.073-8.684.023-13.026.024-2.789,0-2.792,0-2.792,2.732q0,39.315,0,78.63c0,.576-.036,1.153,0,1.726.076,1.211-.472,1.687-1.672,1.67-2.72-.04-5.441-.008-8.161-.007h-4.74c.13-.285.147-.412.215-.454a10.936,10.936,0,0,1,.956-.536,37.962,37.962,0,0,0,9.515-7.068c.822-.791.875-1.358.028-2.183-2.885-2.811-5.725-5.668-8.547-8.542-.682-.7-1.152-.81-1.925-.068-4.057,3.9-8.777,6.093-14.562,5.687a14.525,14.525,0,0,1-11.056-5.687c-3.605-4.682-4.509-10.053-3.426-15.731,1.613-8.456,8.491-14.831,18.54-13.009a16.552,16.552,0,0,1,9.279,5.174c1.115,1.191,1.734,1.131,2.779-.044,2.811-3.159,5.729-6.223,8.638-9.291.577-.608.673-1.052.106-1.725a25.476,25.476,0,0,0-7.309-5.81c-6.917-3.811-14.384-4.494-22.055-3.5a30.751,30.751,0,0,0-21.242,12.287,32.048,32.048,0,0,0-6.239,24.849c1.635,11.344,7.6,19.688,18.01,24.715.306.148.732.189.806.686-.476.441-1.075.238-1.611.239q-9.338.026-18.677.008c-2.406,0-2.426-.023-2.426-2.473q-.006-16.95.006-33.9a37.156,37.156,0,0,0-.67-7c-1.914-10.072-8.345-16.525-18.395-18.521a52.779,52.779,0,0,0-14.805-.612,56.049,56.049,0,0,0-17.109,4.185c-1.128.473-1.361,1.041-.966,2.154.979,2.757,1.875,5.544,2.8,8.321,1.2,3.611,1.2,3.611,4.877,2.392.1-.033.2-.077.3-.109a38.563,38.563,0,0,1,17.938-1.585c5.338.9,8.795,4.811,8.876,9.652.041,2.4-.132,2.45-2.49,1.809-8.5-2.311-17.026-2.655-25.456.205-5.99,2.032-10.264,5.924-11.953,12.238a23.954,23.954,0,0,0-.585,7.923,16.465,16.465,0,0,0,6.477,12.528c1.145.88,2.351,1.681,3.761,2.683h-26.084c.448-.695,1.1-.809,1.635-1.09a32.633,32.633,0,0,0,9.042-6.911c.589-.649,1.366-1.293.18-2.288-2.757-2.312-5.441-4.715-8.072-7.171a1.339,1.339,0,0,0-2.138-.018,20.467,20.467,0,0,1-12.174,5.533c-7.221.723-14.352-2.28-16.917-10.13-.738-2.26-.645-2.408,1.72-2.408q19.461,0,38.923,0c2.528,0,2.617-.082,2.866-2.571a7.334,7.334,0,0,0,.03-.94,47.624,47.624,0,0,0-2.9-16.568c-2.831-7.125-7.445-12.629-14.537-15.843a31.759,31.759,0,0,0-18.4-2.239c-10.5,1.653-17.935,7.614-22.566,17.02a34.674,34.674,0,0,0-3.022,20.321c1.365,10.147,6.244,18.016,15.2,23.2,1.12.648,2.262,1.258,3.683,2.046a8.756,8.756,0,0,1-.994.162c-11.51.006-23.019-.006-34.528.024-1.362,0-1.672-.651-1.667-1.844.027-6.016,0-12.033.012-18.049a63.735,63.735,0,0,1,.647-8.89c1.367-9.566,7.961-15.528,17.614-15.889,1.339-.05,1.856-.475,1.843-1.839-.05-5.022-.01-10.045-.025-15.067-.005-1.749-.236-1.92-1.929-1.647a6.517,6.517,0,0,1-.777.1c-6.739.244-11.437,3.747-14.84,9.3-.742,1.211-1.428,2.455-2.141,3.684l-.4-.11v-1.672c0-2.721.008-5.441,0-8.161-.008-1.967-.1-2.071-2.029-2.075q-6.513-.018-13.027,0c-2.711,0-2.715,0-2.715,2.651q0,28.014,0,56.029c0,.576-.017,1.152,0,1.727.026,1-.159,1.725-1.427,1.743-1.357.02-1.546-.757-1.511-1.819.02-.627,0-1.255,0-1.883q0-46.848,0-93.7A7.063,7.063,0,0,0-3332.537,452.383Zm219.468-69.683-.312.1v1.669q0,16.623,0,33.247c0,10.768.021,21.537-.023,32.3-.006,1.481.464,2.028,1.982,2.017,7.579-.055,15.159-.044,22.739-.008,1.307.006,1.889-.388,1.883-1.789-.042-8.311-.023-16.623-.019-24.934a3.732,3.732,0,0,0-.523-2.093q-3.028-4.755-6.034-9.524-6.917-10.91-13.84-21.817Q-3110.131,387.278-3113.069,382.7Zm-30.619,69.31c4.18,0,8.361-.035,12.542.02,1.367.018,1.984-.372,1.975-1.859q-.073-12.542,0-25.084c.006-1.336-.447-1.859-1.818-1.853q-12.542.059-25.084,0c-1.45-.008-1.9.536-1.895,1.94q.064,12.464,0,24.927c-.007,1.408.454,1.959,1.9,1.936C-3151.946,451.967-3147.817,452.009-3143.688,452.01Zm-172.777-46.691c0,2.876.01,5.752-.005,8.628-.005.954.2,1.67,1.36,1.642,5.794-.137,11.615.471,17.377-.374,3.608-.529,6.639-2.144,8.224-5.737,1.753-3.974.99-10.367-3.942-12.8a15.932,15.932,0,0,0-6.641-1.626c-4.911-.137-9.829-.026-14.743-.062-1.234-.009-1.66.519-1.644,1.7C-3316.438,399.567-3316.466,402.443-3316.466,405.319Zm13.508,46.69c4.022,0,8.045-.017,12.067.01,1.277.008,1.474-.325.737-1.412q-6.721-9.911-13.359-19.876a2.375,2.375,0,0,0-2.186-1.209c-3.029.031-6.06.037-9.089,0-1.189-.016-1.7.427-1.691,1.651q.044,9.56,0,19.12c-.008,1.3.508,1.75,1.772,1.736C-3310.794,451.98-3306.876,452.008-3302.958,452.009Z" transform="translate(3332.537 -341.472)" fill="#fff"/>
    <path id="Path_1617" data-name="Path 1617" d="M-2940.982,600.326c0,5.649-.038,11.3.026,16.945.018,1.534-.443,2.137-2.052,2.117q-9.02-.107-18.042,0c-1.623.02-2.048-.609-2.041-2.128.046-10.46-.012-20.92.054-31.379a23.087,23.087,0,0,1,.993-6.632c1.655-5.405,6.978-7.472,11.613-7,6.484.663,9.249,5.448,9.411,10.974C-2940.853,588.921-2940.982,594.626-2940.982,600.326Z" transform="translate(3204.708 -408.261)" fill="#fff"/>
    <path id="Path_1618" data-name="Path 1618" d="M-3138.872,603.342a26.659,26.659,0,0,1,9.9,1.647,1.939,1.939,0,0,1,1.416,1.961c.359,4.434-.989,8.145-4.833,10.5a15.979,15.979,0,0,1-14.287,1.421,6.539,6.539,0,0,1-4.544-5.674c-.388-3.468.65-6.322,3.793-8.119A15.41,15.41,0,0,1-3138.872,603.342Z" transform="translate(3269.827 -419.031)" fill="#fff"/>
    <path id="Path_1619" data-name="Path 1619" d="M-3232.932,582.893c-3.764,0-7.528.014-11.292,0-1.89-.008-2.065-.22-1.617-1.983,1.275-5.016,3.763-9.174,8.939-10.843,8.991-2.9,16.017,2.9,17.384,11.612.2,1.249-.708,1.2-1.5,1.208C-3224.986,582.9-3228.959,582.891-3232.932,582.893Z" transform="translate(3302.611 -407.266)" fill="#fff"/>
    <path id="Path_1620" data-name="Path 1620" d="M-3126.809,641.057a29.513,29.513,0,0,0,6.452-4.586c.466-.467.833-.385.913.335a2.775,2.775,0,0,1,.019.312c0,5.176.465,4.3-3.935,4.383-1.125.021-2.252,0-3.378,0Z" transform="translate(3261.355 -430.403)" fill="#fff"/>
    <path id="Path_1621" data-name="Path 1621" d="M-3224.184,393.318c-7.656.227-14.109-6.983-14.058-14.095.05-6.971,6.563-13.987,14.18-13.812,6.571.151,14.318,5.069,13.9,15.394C-3210.382,386.358-3216.851,393.645-3224.184,393.318Z" transform="translate(3299.911 -336.715)" fill="#60523a"/>
  </g>
</svg>
