<svg id="marketing" xmlns="http://www.w3.org/2000/svg" width="466.501" height="124.136" viewBox="0 0 466.501 124.136">
  <g id="Group_1249" data-name="Group 1249" transform="translate(0 0)">
    <path id="Path_1575" data-name="Path 1575" d="M-3915.772,447.679q-12.5,0-25,0c-1.984,0-1.99,0-1.99,1.969q0,33.2,0,66.394c0,2.281,0,2.281-2.34,2.281q-7.738,0-15.475,0c-1.724,0-1.766-.043-1.766-1.795q0-33.329,0-66.658c0-2.188,0-2.19-2.167-2.19q-11.374,0-22.748,0c-1.763,0-1.8-.04-1.806-1.754q-.008-7.34,0-14.681c0-1.8.022-1.822,1.872-1.822q35.71,0,71.42,0Z" transform="translate(4382.273 -428.322)" fill="#fff"/>
    <path id="Path_1576" data-name="Path 1576" d="M-4176.757,634.572a17.158,17.158,0,0,1-5.313-1.881c-.415-.273-1.028-.474-.658-1.2.349-.689.78-.665,1.375-.27a10.576,10.576,0,0,0,6.384,1.763,5.716,5.716,0,0,0,5.784-4.955,9.458,9.458,0,0,0-.089-3.557,7.825,7.825,0,0,1-8.242,3.387,7.142,7.142,0,0,1-4.728-2.932,7.437,7.437,0,0,1,.117-9.427,7.644,7.644,0,0,1,6.438-3.079,8.44,8.44,0,0,1,6.352,3.208,4.921,4.921,0,0,0,.275-1.977c.068-.458.285-.726.772-.724a.694.694,0,0,1,.762.731c.031.527.031,1.057.032,1.585,0,3.747-.088,7.5.023,11.24.136,4.579-2.934,7.606-6.559,7.86a2.3,2.3,0,0,0-.609.23Zm-5.29-14.227a6.336,6.336,0,0,0,6.258,6.2c3.883-.052,6.827-2.857,6.779-6.46a6.559,6.559,0,0,0-6.668-6.147A6.089,6.089,0,0,0-4182.047,620.345Z" transform="translate(4469.686 -510.436)" fill="#fff"/>
    <path id="Path_1577" data-name="Path 1577" d="M-4130.171,634.6q0-9.844,0-19.689c0-.4,0-.793.026-1.188.027-.448.232-.753.727-.768.561-.018.8.3.812.816a13.086,13.086,0,0,0,.165,2.3c2.3-2.786,5.049-4.169,8.6-3.358a7.8,7.8,0,0,1,4.586,3.161c2.49,3.405,1.879,9.088-1.22,11.743-2.839,2.431-7.877,3.441-12.112-1.674V634.6Zm1.59-13.557a6.694,6.694,0,0,0,6.758,7.1c4.1-.047,6.354-2.675,6.379-7.049.026-4.507-2.88-7.01-6.426-7.1C-4125.551,613.9-4128.568,617.171-4128.581,621.048Z" transform="translate(4445.59 -510.469)" fill="#fff"/>
    <path id="Path_1578" data-name="Path 1578" d="M-4177.246,457.686c0,8.422.139,16.847-.039,25.265-.185,8.732-2.412,16.884-7.867,23.929a31.2,31.2,0,0,1-15.877,10.623,49.609,49.609,0,0,1-17.093,2.1c-8.316-.358-16.209-2.165-23.054-7.3a31.336,31.336,0,0,1-11.451-17.444,48.428,48.428,0,0,1-1.641-11.338c-.554-17.5-.068-35-.263-52.5-.015-1.3.46-1.657,1.7-1.645,5.378.05,10.759.018,16.138.023,1.725,0,1.766.044,1.766,1.8,0,15.962-.054,31.925.037,47.886.026,4.538.516,9.055,2.69,13.207,2.72,5.192,7.172,7.847,12.778,8.782a22.426,22.426,0,0,0,10.44-.719c6.569-2.031,10.125-6.7,11.582-13.191a26.063,26.063,0,0,0,.587-5.768q-.037-25-.013-50c0-1.985,0-1.989,1.97-1.99q7.871,0,15.741,0c1.846,0,1.868.021,1.868,1.826Q-4177.242,444.458-4177.246,457.686Z" transform="translate(4501.398 -428.304)" fill="#fff"/>
    <path id="Path_1579" data-name="Path 1579" d="M-4078.137,427.442c12.644-.02,23.145,3.431,32.463,10.5.976.74,1.188,1.269.443,2.325q-4.454,6.318-8.756,12.741c-.662.991-1.164.707-1.907.222a56.308,56.308,0,0,0-13.058-6.6,25.684,25.684,0,0,0-12.5-1.15,10.881,10.881,0,0,0-4.944,2.067c-4.025,3.11-3.583,10.028,2.353,12.5a112.033,112.033,0,0,0,13.481,4.208A78.507,78.507,0,0,1-4054.692,470a24.081,24.081,0,0,1,10.143,9.37,21.261,21.261,0,0,1,2.415,7.767,31.129,31.129,0,0,1-.5,10.753,23.727,23.727,0,0,1-11.649,15.937,36.239,36.239,0,0,1-16.073,4.7,56.888,56.888,0,0,1-30.658-6.213,55.067,55.067,0,0,1-10.421-7.174c-.836-.7-.668-1.3-.084-2q4.195-5.007,8.383-10.018a13.267,13.267,0,0,0,1.426-1.726c.758-1.307,1.5-1.037,2.475-.237a44.92,44.92,0,0,0,13.293,7.744c6.294,2.242,12.74,3.136,19.264.819a7.387,7.387,0,0,0,4.963-8.789,6.7,6.7,0,0,0-3.787-4.64,45.417,45.417,0,0,0-10.112-3.822c-5.875-1.556-11.815-2.911-17.44-5.271-5.3-2.223-9.975-5.251-12.862-10.471a19.926,19.926,0,0,1-2.449-8.033c-.384-4.575-.487-9.161,1.19-13.568,3.345-8.785,9.945-13.855,18.77-16.327A35.209,35.209,0,0,1-4078.137,427.442Z" transform="translate(4437.44 -427.427)" fill="#fff"/>
    <path id="Path_1580" data-name="Path 1580" d="M-4313.344,460.5c0,9.655.092,19.311-.037,28.964a34.143,34.143,0,0,1-3.371,14.816,25.5,25.5,0,0,1-15.191,13.289,40.715,40.715,0,0,1-16.926,1.88,33.543,33.543,0,0,1-13.286-3.583,38.3,38.3,0,0,1-11.284-8.789c-.482-.567-.636-.913-.07-1.532,1.986-2.175,3.9-4.412,5.865-6.611,1.669-1.871,3.391-3.695,5.031-5.59.746-.862,1.267-.77,1.99.029a27.239,27.239,0,0,0,7.345,5.978,15.152,15.152,0,0,0,11.111,1.606c4.659-1.187,7.631-4.973,8.188-10.087a55.822,55.822,0,0,0,.261-6.064q0-26.65,0-53.3c0-2.087,0-2.089,2.135-2.09q8.266,0,16.532,0c1.65,0,1.706.057,1.706,1.721Q-4313.34,445.822-4313.344,460.5Z" transform="translate(4554.943 -428.32)" fill="#fff"/>
    <path id="Path_1581" data-name="Path 1581" d="M-4560.71,473.282q0,20.895-.017,41.789c0,.7.408,1.677-.821,1.91-1.933.365-2.9.008-3.418-1.21q-5.862-13.8-11.744-27.591-5.762-13.554-11.513-27.114-5.892-13.858-11.8-27.711c-.432-1.013-.842-2.034-1.281-3.044-.285-.657-.036-.9.619-.887.265.006.529,0,.794,0q18.58,0,37.16,0c2.016,0,2.019,0,2.019,2.073Q-4560.71,452.387-4560.71,473.282Z" transform="translate(4657.048 -428.321)" fill="#fff"/>
    <path id="Path_1582" data-name="Path 1582" d="M-4492.068,485.9q0-12.436,0-24.871c0-1.828.02-1.846,1.847-1.847q7.21-.006,14.421,0a24.61,24.61,0,0,1,23.608,16.4c3.09,8.621,2.6,17.1-2.156,25.043-3.979,6.65-10.073,10.329-17.675,11.45-6.214.916-12.488.466-18.738.566-1.23.019-1.318-.666-1.316-1.607Q-4492.055,498.464-4492.068,485.9Z" transform="translate(4607.984 -441.673)" fill="#fff"/>
    <path id="Path_1583" data-name="Path 1583" d="M-4702.047,512.005a2.954,2.954,0,0,1-.242-1.66q-.01-39.405-.005-78.81c0-2.112,0-2.115,2.109-2.115q15.8,0,31.6,0c1.666,0,1.714.068,1.063,1.593q-9.328,21.87-18.661,43.736-7.321,17.2-14.6,34.409C-4701.161,510.043-4701.563,510.916-4702.047,512.005Z" transform="translate(4702.319 -428.321)" fill="#fff"/>
    <path id="Path_1584" data-name="Path 1584" d="M-4641.965,572.107q-12.43,0-24.86,0c-1.833,0-1.836-.045-1.142-1.746,2.214-5.422,4.447-10.838,6.582-16.291a2.456,2.456,0,0,1,2.7-1.844q16.794.1,33.588,0a2.291,2.291,0,0,1,2.51,1.722c2.194,5.572,4.475,11.111,6.741,16.655.557,1.362.5,1.5-.991,1.5Q-4629.4,572.115-4641.965,572.107Z" transform="translate(4687.102 -483.426)" fill="#fff"/>
    <path id="Path_1585" data-name="Path 1585" d="M-4462.215,558.639c23.547-1.734,39.688-12.588,45.463-36.431v1.109q0,16.733,0,33.467c0,1.836-.019,1.854-1.84,1.854q-21.231,0-42.462,0Z" transform="translate(4594.584 -469.957)" fill="#fff"/>
    <path id="Path_1586" data-name="Path 1586" d="M-4439.179,429.42h7.925q11.443,0,22.886,0c1.944,0,1.952.005,1.952,1.875q0,15.808,0,31.616v1.141C-4410.359,445.875-4421.683,434.806-4439.179,429.42Z" transform="translate(4584.248 -428.321)" fill="#fff"/>
    <path id="Path_1587" data-name="Path 1587" d="M-4629.634,468.9c1.652,4.032,3.167,7.733,4.686,11.432q3.111,7.576,6.224,15.152c.663,1.623.626,1.66-1.142,1.661q-9.917,0-19.834-.006c-.664,0-1.583.2-1.059-1.071C-4637.1,487.15-4633.45,478.224-4629.634,468.9Z" transform="translate(4674.771 -446.037)" fill="#fff"/>
    <path id="Path_1588" data-name="Path 1588" d="M-4385.161,615.428a6.37,6.37,0,0,1,8.543-2.12,4.911,4.911,0,0,1,1.762,1.746c.4.638.737.728,1.266.037a6.213,6.213,0,0,1,6.39-2.478,5.762,5.762,0,0,1,5.08,5.684c.089,3.26.027,6.524.021,9.786,0,.529.024,1.137-.741,1.163-.856.03-.833-.625-.835-1.2-.009-2.91,0-5.819-.009-8.729-.01-3.227-1.57-5.168-4.28-5.344-2.955-.192-5.032,1.6-5.532,4.665-.45,2.765-.128,5.543-.235,8.312-.017.44,0,.882-.013,1.323-.014.524-.125.987-.793.982s-.773-.482-.775-1c-.009-2.292.014-4.585-.02-6.877a14.959,14.959,0,0,0-.172-3.816,4.481,4.481,0,0,0-3.911-3.578,5.11,5.11,0,0,0-5.052,2.678,8.853,8.853,0,0,0-.9,3.96c-.024,2.336.014,4.673-.023,7.01-.009.627.321,1.609-.809,1.6-1.023-.01-.75-.926-.753-1.524q-.034-6.613,0-13.226c0-.6-.255-1.5.779-1.5s.716.89.8,1.491C-4385.336,614.757-4385.461,615.077-4385.161,615.428Z" transform="translate(4560.827 -510.462)" fill="#fff"/>
    <path id="Path_1589" data-name="Path 1589" d="M-4559.589,615.29c1.381-1.406,2.735-2.555,4.744-2.729,2.306-.2,4.286.312,5.647,2.32.512.754.838.961,1.518.081,1.864-2.409,4.381-2.921,7.218-2.15a5.728,5.728,0,0,1,4.129,5.4c.094,3.3.03,6.612.026,9.919,0,.541-.019,1.12-.784,1.123s-.788-.572-.79-1.116c-.009-2.954,0-5.907-.011-8.861-.011-3.13-1.563-5.083-4.191-5.3-2.987-.245-5.114,1.567-5.626,4.7-.45,2.765-.123,5.543-.23,8.312-.019.484-.006.97-.026,1.454-.021.517-.265.83-.823.808-.5-.02-.69-.333-.717-.78-.022-.352-.025-.705-.025-1.057,0-2.777.011-5.555-.005-8.333-.018-2.754-1.524-4.713-3.867-5.079a5.1,5.1,0,0,0-5.723,3.8,10.7,10.7,0,0,0-.464,3.123c.021,2.425.006,4.85,0,7.274,0,.5-.052,1.014-.725,1.048-.751.038-.846-.492-.846-1.06q-.006-7.076,0-14.152c0-.558.068-1.1.825-1.084.673.017.737.513.749,1.024C-4559.582,614.416-4559.589,614.853-4559.589,615.29Z" transform="translate(4638.987 -510.464)" fill="#fff"/>
    <path id="Path_1590" data-name="Path 1590" d="M-3923.3,610.271q0-2.747,0-5.494c0-1.058-.008-2.116.006-3.174.008-.575-.031-1.234.827-1.21.765.022.74.626.748,1.156.015,1.014.007,2.028.008,3.041q0,8.661,0,17.322c0,.4,0,.794-.032,1.189a.7.7,0,0,1-.761.731.685.685,0,0,1-.763-.726,17.184,17.184,0,0,0-.15-2.374c-2.13,2.669-4.761,3.917-8.107,3.339a7.524,7.524,0,0,1-4.862-3.154c-2.586-3.5-2.064-9.109,1.119-11.8C-3932.2,606.529-3927.461,605.805-3923.3,610.271Zm-12.961,5.319c.005,4.071,2.768,7.187,6.357,7.174a7.078,7.078,0,0,0,6.737-7.1,6.956,6.956,0,0,0-6.938-7.123C-3933.58,608.578-3936.27,611.657-3936.265,615.59Z" transform="translate(4359.375 -505.04)" fill="#fff"/>
    <path id="Path_1591" data-name="Path 1591" d="M-4067.63,611.3a10.28,10.28,0,0,1,4.79-3.909,4.35,4.35,0,0,1,2.714-.235c1.111.315,1.575-.164,1.495-1.277a6.922,6.922,0,0,1,.342-2.606,4.956,4.956,0,0,1,6.351-3.036.9.9,0,0,1,.655,1.131c-.15.564-.651.388-.994.279-2.7-.852-5,.717-4.774,4.425.05.821.332,1.219,1.182,1.2,1.013-.024,2.029-.036,3.04.014.557.027,1.473-.28,1.481.618.009,1.02-.968.637-1.55.677a22.393,22.393,0,0,1-2.774.008c-1.044-.058-1.388.4-1.379,1.411.033,3.922.013,7.844.01,11.767,0,.4-.005.794-.041,1.188a.685.685,0,0,1-.809.671.658.658,0,0,1-.692-.653c-.035-.394-.043-.792-.044-1.187,0-3.878,0-7.757-.006-11.635,0-1.456-.3-1.666-1.735-1.5-5.219.585-6.976,3.76-7.237,8.749-.087,1.67-.012,3.349-.024,5.023,0,.578.02,1.232-.835,1.2-.764-.028-.74-.635-.74-1.163q-.01-7.007,0-14.015c0-.546.03-1.117.794-1.112s.773.585.78,1.126C-4067.621,609.4-4067.63,610.352-4067.63,611.3Z" transform="translate(4418.236 -504.834)" fill="#fff"/>
    <path id="Path_1592" data-name="Path 1592" d="M-4640.7,611.408a10.192,10.192,0,0,1,4.98-3.955,4.063,4.063,0,0,1,2.461-.18c1.189.341,1.611-.163,1.568-1.333a5.576,5.576,0,0,1,1.841-4.749c1.48-1.269,3.2-1.014,4.9-.783a.8.8,0,0,1,.609,1.026c-.109.609-.606.467-.945.354-2.752-.92-5.043.739-4.841,4.347.049.883.34,1.3,1.252,1.268,1.013-.034,2.029-.038,3.04.01.553.026,1.438-.268,1.422.683-.013.834-.834.6-1.359.617a28.734,28.734,0,0,1-2.908,0c-1.108-.068-1.458.412-1.448,1.48.039,3.922.016,7.845.012,11.766a10.573,10.573,0,0,1-.053,1.187.654.654,0,0,1-.731.607.653.653,0,0,1-.744-.59,9.6,9.6,0,0,1-.058-1.186c0-3.878,0-7.756-.005-11.635,0-1.534-.3-1.738-1.8-1.562-5.252.61-6.933,3.9-7.17,8.809-.081,1.671-.012,3.349-.024,5.023,0,.537,0,1.122-.77,1.136s-.8-.553-.8-1.1q-.007-7.073,0-14.146c0-.5.055-1.013.728-1.045.752-.035.839.5.844,1.062C-4640.7,609.481-4640.7,610.445-4640.7,611.408Z" transform="translate(4675.384 -504.962)" fill="#fff"/>
    <path id="Path_1593" data-name="Path 1593" d="M-4702.3,613.339c0-3.217.035-6.436-.018-9.652-.021-1.156.4-1.581,1.542-1.523,3.119.159,6.261-.3,9.362.272a6.59,6.59,0,0,1,5.522,5.6c.356,3.826-1.376,6.1-4.6,7.436a10.091,10.091,0,0,1-4.262.743c-1.541-.052-3.086.02-4.628-.02-.957-.025-1.354.351-1.333,1.32q.059,2.71-.008,5.421c-.017.625.348,1.617-.752,1.65-1.126.033-.8-.967-.807-1.594C-4702.322,619.774-4702.3,616.557-4702.3,613.339Zm1.593-4.341h0c0,1.5.011,2.992,0,4.487-.007.768.328,1.13,1.107,1.124,2.112-.015,4.229.084,6.333-.033,3.3-.184,5.68-2.408,5.778-5.232.1-2.956-1.744-5.044-4.891-5.527a46.748,46.748,0,0,0-7.1-.321c-.918,0-1.253.4-1.234,1.28C-4700.688,606.182-4700.711,607.59-4700.711,609Z" transform="translate(4702.329 -505.824)" fill="#fff"/>
    <path id="Path_1594" data-name="Path 1594" d="M-4501.015,626.963a8.187,8.187,0,0,1-8.795,2.321,5.133,5.133,0,0,1-3.784-4.85,5.247,5.247,0,0,1,4.076-4.8,15.866,15.866,0,0,1,6.8-.089c1.771.3,2.094-.056,1.641-1.835-.717-2.817-2.963-3.612-5.726-3.5a10.824,10.824,0,0,0-3.969.9.7.7,0,0,1-1.047-.449.579.579,0,0,1,.372-.844c2.81-1.112,5.667-1.717,8.589-.471,2.435,1.038,3.428,3.089,3.5,5.589.084,2.949.036,5.9.009,8.851-.005.6.267,1.491-.759,1.522-1.047.032-.741-.864-.819-1.467C-4500.958,627.638-4500.972,627.424-4501.015,626.963Zm-5.015-6.292a7.693,7.693,0,0,0-3.628.556,3.177,3.177,0,0,0-2.091,2.8,3.258,3.258,0,0,0,1.525,3.4,7.041,7.041,0,0,0,7.542-.631,5.1,5.1,0,0,0,1.752-4.6,1,1,0,0,0-.939-1.05A16.994,16.994,0,0,0-4506.029,620.671Z" transform="translate(4617.639 -510.545)" fill="#fff"/>
    <path id="Path_1595" data-name="Path 1595" d="M-4326.9,627.138a8.244,8.244,0,0,1-7.017,2.523,5.635,5.635,0,0,1-5.17-3.987,4.963,4.963,0,0,1,3.9-6.049,15.958,15.958,0,0,1,6.8-.069c1.692.293,2.033-.072,1.609-1.768-.73-2.917-2.911-3.652-5.671-3.586a10.226,10.226,0,0,0-3.971.886c-.474.214-.853.164-1.092-.349a.613.613,0,0,1,.392-.939c2.77-1.085,5.586-1.682,8.469-.482,2.5,1.039,3.508,3.119,3.573,5.676.075,2.949.031,5.9.008,8.851,0,.606.231,1.481-.812,1.474-.948-.006-.7-.818-.77-1.391C-4326.679,627.682-4326.56,627.4-4326.9,627.138Zm-4.973-6.465a7.079,7.079,0,0,0-3.645.616c-2.181.932-2.776,4.284-.929,5.745,2.164,1.712,4.57,1.572,6.961.451a4.86,4.86,0,0,0,2.841-5.186c-.043-.673-.266-1.041-.966-1.165A17,17,0,0,0-4331.87,620.673Z" transform="translate(4539.402 -510.543)" fill="#fff"/>
    <path id="Path_1596" data-name="Path 1596" d="M-4259.953,621.564c-1.764,0-3.529.055-5.29-.019-1.165-.049-1.478.345-1.206,1.465a6.573,6.573,0,0,0,10.343,3.835c.394-.284.788-.566,1.163-.872.411-.335.716-.191,1.015.156.318.37.1.6-.156.891a8.328,8.328,0,0,1-10.741,1.113,8.437,8.437,0,0,1-3.225-9.376,7.9,7.9,0,0,1,6.646-6.355,7.356,7.356,0,0,1,7.478,4.309,10.9,10.9,0,0,1,.887,3.576c.037.886-.305,1.3-1.226,1.282-1.9-.03-3.792-.009-5.687-.009Zm-.764-1.326c1.452,0,2.9,0,4.354,0,1.565-.005,1.742-.241,1.344-1.787a5.668,5.668,0,0,0-6.083-4.552,6.336,6.336,0,0,0-5.412,5.2c-.143.9.179,1.176,1.047,1.152C-4263.884,620.2-4262.3,620.236-4260.717,620.237Z" transform="translate(4507.604 -510.391)" fill="#fff"/>
    <path id="Path_1597" data-name="Path 1597" d="M-4664.085,621.608c-1.808,0-3.617.05-5.422-.017-1.114-.041-1.252.454-1.056,1.371a6.58,6.58,0,0,0,10.288,3.984c.36-.254.72-.51,1.058-.791.375-.31.714-.508,1.134-.056.459.492.087.735-.223,1.078-3.367,3.733-10.8,3.307-13.324-2.222-2.208-4.834.3-11.449,5.781-12.438a7.35,7.35,0,0,1,7.844,4.271,12.191,12.191,0,0,1,.865,3.315c.1,1.044-.25,1.555-1.391,1.518C-4660.38,621.563-4662.233,621.607-4664.085,621.608Zm-.758-1.326c1.539,0,3.083-.071,4.617.023,1.269.077,1.374-.537,1.188-1.523a5.722,5.722,0,0,0-5.991-4.843,6.272,6.272,0,0,0-5.588,5.3c-.087.73.109,1.063.893,1.047C-4668.1,620.258-4666.471,620.28-4664.843,620.282Z" transform="translate(4688.913 -510.437)" fill="#fff"/>
    <path id="Path_1598" data-name="Path 1598" d="M-4420.175,621.621c-1.808,0-3.618.059-5.422-.019-1.135-.049-1.381.381-1.152,1.4a6.579,6.579,0,0,0,10.309,3.935c.395-.281.792-.561,1.161-.873a.645.645,0,0,1,1.026.069c.379.413.133.658-.166.988a8.26,8.26,0,0,1-13.794-3.172c-1.477-4.578,1.027-10.367,5.945-11.368a7.285,7.285,0,0,1,8.082,4.246,11.315,11.315,0,0,1,.861,3.449c.055.951-.313,1.37-1.3,1.35C-4416.471,621.592-4418.324,621.62-4420.175,621.621Zm-.86-1.325c1.539,0,3.083-.071,4.616.023,1.269.077,1.374-.538,1.189-1.523a5.723,5.723,0,0,0-5.992-4.843,6.273,6.273,0,0,0-5.588,5.3c-.086.73.109,1.063.894,1.047C-4424.29,620.272-4422.662,620.294-4421.035,620.3Z" transform="translate(4579.517 -510.451)" fill="#fff"/>
    <path id="Path_1599" data-name="Path 1599" d="M-4090.916,621.615c-1.808,0-3.618.065-5.422-.019-1.281-.06-1.379.51-1.122,1.525a6.556,6.556,0,0,0,10.37,3.737c.355-.26.722-.507,1.057-.791a.644.644,0,0,1,1.027.06c.377.41.145.656-.156.989a8.262,8.262,0,0,1-13.8-3.161c-1.482-4.582,1.025-10.441,6.067-11.4a7.309,7.309,0,0,1,7.957,4.269,11.349,11.349,0,0,1,.863,3.448c.056.945-.3,1.377-1.288,1.356C-4087.212,621.585-4089.064,621.613-4090.916,621.615Zm-.835-1.325c1.452,0,2.9,0,4.354,0,1.567-.005,1.742-.24,1.347-1.786a5.668,5.668,0,0,0-6.081-4.553,6.335,6.335,0,0,0-5.414,5.2c-.143.9.175,1.178,1.046,1.153C-4094.918,620.257-4093.334,620.289-4091.751,620.29Z" transform="translate(4431.774 -510.444)" fill="#fff"/>
    <path id="Path_1600" data-name="Path 1600" d="M-4030.542,621.563c-1.764,0-3.529.056-5.29-.019-1.182-.051-1.462.37-1.193,1.474a6.572,6.572,0,0,0,10.348,3.819c.392-.284.787-.567,1.162-.872.415-.336.719-.175,1.013.169.32.375.09.6-.169.89a8.315,8.315,0,0,1-10.741,1.1,8.44,8.44,0,0,1-3.216-9.38,7.9,7.9,0,0,1,6.653-6.348,7.365,7.365,0,0,1,7.472,4.32,10.888,10.888,0,0,1,.884,3.577c.037.894-.323,1.287-1.235,1.273-1.9-.03-3.792-.009-5.688-.009Zm-.806-1.326c1.539,0,3.083-.071,4.616.022,1.24.075,1.4-.488,1.213-1.5a5.725,5.725,0,0,0-5.977-4.862,6.277,6.277,0,0,0-5.608,5.283c-.111.852.216,1.087,1.006,1.07C-4034.515,620.21-4032.931,620.235-4031.347,620.236Z" transform="translate(4404.659 -510.391)" fill="#fff"/>
    <path id="Path_1601" data-name="Path 1601" d="M-3958.1,621.623c-1.808,0-3.617.051-5.422-.017-1.124-.042-1.242.472-1.045,1.378a6.577,6.577,0,0,0,10.292,3.972c.4-.279.792-.561,1.162-.872a.649.649,0,0,1,1.029.037c.375.4.181.65-.132.991a8.036,8.036,0,0,1-8.007,2.3,7.646,7.646,0,0,1-5.826-5.566c-1.476-4.524,1.076-10.252,5.943-11.255a7.289,7.289,0,0,1,8.1,4.219,12.179,12.179,0,0,1,.864,3.315c.1,1.051-.267,1.547-1.4,1.511C-3954.39,621.579-3956.244,621.622-3958.1,621.623Zm-.756-1.326c1.539,0,3.083-.071,4.616.023,1.263.077,1.382-.525,1.2-1.518a5.722,5.722,0,0,0-5.988-4.847,6.269,6.269,0,0,0-5.592,5.3c-.087.725.1,1.068.888,1.052C-3962.106,620.273-3960.479,620.295-3958.851,620.3Z" transform="translate(4372.13 -510.452)" fill="#fff"/>
    <path id="Path_1602" data-name="Path 1602" d="M-4603.595,629.539c-4.146.35-8.455-3.287-8.394-8.454a8.418,8.418,0,0,1,8.476-8.678,8.479,8.479,0,0,1,8.417,8.578C-4595.142,625.158-4598.357,629.819-4603.595,629.539Zm6.652-8.468a6.715,6.715,0,0,0-6.661-7.141c-3.852.027-6.56,2.938-6.565,7.073-.006,4,2.926,7.253,6.7,7.169A6.5,6.5,0,0,0-4596.942,621.071Z" transform="translate(4661.791 -510.43)" fill="#fff"/>
    <path id="Path_1603" data-name="Path 1603" d="M-4290.328,617.48a2.121,2.121,0,0,0,1.339-.9c2.713-2.7,5.474-5.363,7.994-8.254a2.27,2.27,0,0,1,2.614-.689,12.962,12.962,0,0,1-2.07,2.263c-1.166,1.2-2.317,2.424-3.562,3.541-.946.851-1.038,1.491-.152,2.509,2.02,2.32,3.9,4.759,5.837,7.154a5.052,5.052,0,0,1,.359.615,2.083,2.083,0,0,1-2.575-.789c-1.592-1.992-3.23-3.949-4.77-5.981-.664-.875-1.156-.921-1.837-.089a8.983,8.983,0,0,1-1.307,1.308,4.353,4.353,0,0,0-1.894,4.335c.094.571.135,1.357-.819,1.323-.853-.031-.738-.743-.738-1.293q-.015-10.444,0-20.889c0-.562-.067-1.246.792-1.243s.783.691.784,1.251q.015,7.073.007,14.146Z" transform="translate(4518.168 -505.043)" fill="#fff"/>
    <path id="Path_1604" data-name="Path 1604" d="M-4481.55,615.544a6.958,6.958,0,0,1,4.726-3.02,6.223,6.223,0,0,1,7.419,5.22,21.191,21.191,0,0,1,.282,3.679c-.03,2.247-.01,4.5-.017,6.743,0,.568-.095,1.1-.846,1.06-.673-.033-.724-.544-.727-1.047q-.013-3.371-.008-6.743a17.7,17.7,0,0,0-.225-3.022c-.446-2.626-2.009-4.239-4.433-4.459a5.4,5.4,0,0,0-5.93,3.614,10.125,10.125,0,0,0-.528,3.244q.022,3.57,0,7.14c0,.556.092,1.248-.766,1.267s-.809-.658-.81-1.225q-.012-6.941,0-13.882c0-.525-.036-1.137.727-1.178.854-.045.816.6.858,1.184A2.1,2.1,0,0,0-4481.55,615.544Z" transform="translate(4604.1 -510.438)" fill="#fff"/>
    <path id="Path_1605" data-name="Path 1605" d="M-4210.562,615.848c1.39-1.914,2.854-3.026,4.88-3.24,4.562-.482,6.793,1.772,7.466,5.283a39.12,39.12,0,0,1,.256,6.589c.027,1.233.008,2.468,0,3.7,0,.551-.046,1.115-.807,1.1s-.765-.6-.767-1.14c-.01-2.6.056-5.2-.034-7.8-.054-1.568-.1-3.2-1.195-4.507a5.224,5.224,0,0,0-5.624-1.642,5.121,5.121,0,0,0-3.926,4.025,13.313,13.313,0,0,0-.349,3.669c.028,2.071.012,4.143,0,6.214,0,.525.035,1.138-.728,1.177-.853.042-.847-.605-.848-1.189q-.01-6.941,0-13.882c0-.572-.037-1.243.819-1.216s.722.723.761,1.276C-4210.629,614.653-4210.61,615.041-4210.562,615.848Z" transform="translate(4482.417 -510.492)" fill="#fff"/>
    <path id="Path_1606" data-name="Path 1606" d="M-4447.056,629.553c-4.634.253-8.052-3.477-8.506-7.811a8.774,8.774,0,0,1,6.709-9.077,7.706,7.706,0,0,1,7.307,1.988c.334.315,1.165.547.473,1.324-.574.645-.984.25-1.45-.108a7.7,7.7,0,0,0-4.133-1.906,6.489,6.489,0,0,0-6.932,5.233,7.072,7.072,0,0,0,5.784,8.922c2.184.383,3.921-.642,5.533-1.96.331-.271.572-.875,1.165-.278s.291,1-.187,1.418A7.555,7.555,0,0,1-4447.056,629.553Z" transform="translate(4591.617 -510.449)" fill="#fff"/>
    <path id="Path_1607" data-name="Path 1607" d="M-4002.118,629.555c-4.629.265-8.045-3.449-8.521-7.782a8.778,8.778,0,0,1,6.68-9.1,7.853,7.853,0,0,1,7.615,2.221c.322.317.7.565.213,1.063a.781.781,0,0,1-1.238.094,8.148,8.148,0,0,0-4.2-2.076,6.475,6.475,0,0,0-7.049,5.067c-1.062,4.451,1.333,8.284,5.714,9.072,2.187.394,3.927-.62,5.537-1.939.375-.307.657-.915,1.261-.219.522.6.173.954-.24,1.319A7.541,7.541,0,0,1-4002.118,629.555Z" transform="translate(4391.973 -510.45)" fill="#fff"/>
    <path id="Path_1608" data-name="Path 1608" d="M-4238.108,616.616c0-1.673-.021-3.346.008-5.018.015-.864-.277-1.332-1.211-1.3-.47.015-1.079.046-1.081-.649s.6-.67,1.075-.655c.93.03,1.242-.428,1.217-1.3-.029-1.012,0-2.025.012-3.037.006-.478.139-.886.72-.915.649-.031.832.382.839.929.012.969.052,1.939,0,2.9-.048,1.005.328,1.465,1.373,1.412,1.01-.051,2.024-.018,3.037,0,.477.009,1.079-.026,1.057.674s-.632.622-1.1.631c-1.057.022-2.113.033-3.17.009-.836-.018-1.191.347-1.187,1.185.017,3.345-.019,6.691.02,10.036a2.372,2.372,0,0,0,2.479,2.519,18.673,18.673,0,0,0,2.1-.087c.319-.023.709-.364.886.158a.883.883,0,0,1-.359,1.045,3.754,3.754,0,0,1-2.54.483,3.955,3.955,0,0,1-4.175-4.273c-.017-1.584,0-3.169,0-4.754Z" transform="translate(4495.048 -506.543)" fill="#fff"/>
    <path id="Path_1609" data-name="Path 1609" d="M-3981.327,616.647c0-1.673-.02-3.345.006-5.018.013-.839-.223-1.358-1.182-1.331-.462.013-1.076.073-1.108-.621s.57-.7,1.043-.681c1.025.046,1.281-.5,1.248-1.4-.034-.923-.008-1.849,0-2.772.006-.561.075-1.1.83-1.075.671.023.734.523.741,1.03.013.968.045,1.938,0,2.9s.392,1.342,1.34,1.309c1.1-.038,2.2-.005,3.3.012.42.007.828.112.834.636s-.394.643-.818.65c-1.056.018-2.116.074-3.167.007-1.187-.077-1.516.455-1.5,1.563.05,3.125,0,6.25.024,9.375.013,1.917.924,2.8,2.855,2.824.569.007,1.141-.044,1.71-.087.317-.024.708-.387.9.121a.9.9,0,0,1-.431,1.131,3.737,3.737,0,0,1-2.294.429c-2.785-.064-4.316-1.609-4.337-4.382C-3981.334,619.728-3981.325,618.188-3981.327,616.647Z" transform="translate(4379.825 -506.545)" fill="#fff"/>
    <path id="Path_1610" data-name="Path 1610" d="M-4308.087,616.917c1.18-1.156,2.112-2.524,3.665-3.281a8.845,8.845,0,0,1,2.091-.783c.6-.123,1.427-.4,1.589.584.146.889-.539,1.071-1.251,1.165a6.46,6.46,0,0,0-4.823,3.307,11.361,11.361,0,0,0-1.248,5.47c-.091,1.58-.013,3.169-.027,4.754-.006.568.047,1.233-.811,1.224-.765-.008-.763-.6-.765-1.138q-.009-7,0-14c0-.531-.011-1.132.753-1.149.856-.019.813.639.823,1.212C-4308.076,615.16-4308.087,616.039-4308.087,616.917Z" transform="translate(4526.136 -510.572)" fill="#fff"/>
    <path id="Path_1611" data-name="Path 1611" d="M-4576.867,617.071a12.254,12.254,0,0,1,3.8-3.472,6.728,6.728,0,0,1,2.629-.795c.479-.018.883.114.932.694a.9.9,0,0,1-.654,1.017,3.5,3.5,0,0,1-.515.11,7.061,7.061,0,0,0-5.942,6.329,63.327,63.327,0,0,0-.259,7.113c-.015.6.112,1.359-.841,1.322-.851-.034-.733-.745-.735-1.294q-.016-6.869,0-13.737c0-.56-.074-1.245.784-1.249s.78.679.791,1.241C-4576.854,615.256-4576.867,616.163-4576.867,617.071Z" transform="translate(4646.744 -510.609)" fill="#fff"/>
    <path id="Path_1612" data-name="Path 1612" d="M-4218.817,621.5c0,2.244.014,4.488-.009,6.733-.006.573.191,1.368-.747,1.408s-.823-.741-.825-1.331q-.018-6.8,0-13.6c0-.587-.136-1.371.814-1.342s.752.823.757,1.4C-4218.8,617.009-4218.817,619.253-4218.817,621.5Z" transform="translate(4486.081 -510.862)" fill="#fff"/>
    <path id="Path_1613" data-name="Path 1613" d="M-4148.4,640.052c.091,1.757-.384,3.041-1.854,3.806-.31.161-.678.365-.953,0-.331-.439.127-.59.379-.8.872-.719,1.558-1.389.5-2.584a1.766,1.766,0,0,1,.04-2,1.059,1.059,0,0,1,1.334-.217C-4147.99,638.661-4148.61,639.585-4148.4,640.052Z" transform="translate(4455.083 -521.974)" fill="#fff"/>
  </g>
</svg>
