<svg id="production" xmlns="http://www.w3.org/2000/svg" width="366.842" height="263.884" viewBox="0 0 366.842 263.884">
  <path id="Path_1622" data-name="Path 1622" d="M-2032.644,705.1a32.569,32.569,0,0,1-3.929-1.786c-2.724-1.681-3.569-4.366-3.209-7.363a7.27,7.27,0,0,1,5.079-6.222c3.65-1.344,7.327-1.058,11.014-.173.378.091.762.156,1.138.232a4.443,4.443,0,0,0-2.721-5.318c-3.317-1.182-6.54-.6-9.722.58-.318.118-.637.229-1.011.364-.471-1.313-.974-2.541-1.326-3.81a1.3,1.3,0,0,1,.455-1.166c4.72-1.945,9.568-2.741,14.508-.953a7.91,7.91,0,0,1,5.359,5.89,24.655,24.655,0,0,1,.593,4.86c.077,4.671.028,9.344.028,14.1h-5.853v-2.721c-1.687,1-3.223,1.936-4.791,2.82a12.514,12.514,0,0,1-1.683.663Zm5-12.6a25.841,25.841,0,0,0-3.1.47,3.9,3.9,0,0,0-3.126,3.043,3.349,3.349,0,0,0,1.048,3.4c2.814,2.294,9.088,1.4,10.4-2.778.471-1.5.168-3.146-.811-3.358C-2024.738,692.956-2026.259,692.741-2027.645,692.5Z" transform="translate(2093.415 -441.214)" fill="#fafef9"/>
  <path id="Path_1623" data-name="Path 1623" d="M-1766.489,704.937c-.847-.308-1.684-.651-2.544-.918-4.856-1.506-8.324-6.9-8.32-11.46,0-3.391.463-6.58,2.482-9.348a12.264,12.264,0,0,1,18.467-1.76,12.643,12.643,0,0,1,3.43,7.292c.229,1.462.281,2.951.43,4.622h-19.094c.373,3.06,1.913,5.162,4.594,6.04,3.375,1.106,5.987.7,9.86-2.519l3.3,2.991a13.067,13.067,0,0,1-7.675,4.717c-.148.025-.267.224-.4.343Zm7.83-15.421c.372-3.167-2.84-6.27-5.875-6.446-4.117-.238-7.2,3.284-7.006,6.446Z" transform="translate(1996.269 -441.053)" fill="#fafef9"/>
  <path id="Path_1624" data-name="Path 1624" d="M-1802.153,704.942a41.547,41.547,0,0,1-5.388-2.526c-6.849-4.454-7.615-14.526-1.96-20.139,4.445-4.412,9.6-5.172,15.245-3.153,1.715.614,3.148,2.012,4.783,3.1l-3.771,4.08c-4.532-4.86-9.369-3.589-11.792-1.013a9.237,9.237,0,0,0-.155,12.1c2.959,3.142,7.963,3.727,12.143-.64l3.419,3.538a12.827,12.827,0,0,1-7.286,4.3,2.545,2.545,0,0,0-.7.359Z" transform="translate(2009.559 -441.058)" fill="#fafef9"/>
  <path id="Path_1625" data-name="Path 1625" d="M-1604.763,705.536c-.538-.125-1.073-.266-1.615-.371a18.754,18.754,0,0,1-7.648-3.29l1.288-1.822a14.463,14.463,0,0,0,9.911,3.139,5.607,5.607,0,0,0,5-3.764c.394-1.418-.138-3.3-1.473-3.9-2.784-1.244-5.679-2.237-8.516-3.365a8.125,8.125,0,0,1-4.222-2.872c-2.2-3.346.208-7.553,3.36-8.812,3.978-1.588,7.653-.665,11.255,1.164.391.2.787.39,1.3.645l-1.084,1.9c-2.671-1.579-5.481-2.641-8.583-2.268a7.334,7.334,0,0,0-3.293,1.16c-2.008,1.438-2.238,4.748.287,5.955,2.478,1.184,5.133,2,7.719,2.952,2.224.821,4.356,1.785,5.281,4.19,1.3,3.378-1.262,7.772-5,8.678-.921.223-1.84.451-2.76.677Z" transform="translate(1935.826 -441.653)" fill="#fafef9"/>
  <path id="Path_1626" data-name="Path 1626" d="M-1853.24,665.695h5.87v33.973c-1.46,0-2.952.038-4.439-.03a1.555,1.555,0,0,1-.931-.64q-8.515-11.021-17.005-22.063c-.35-.453-.786-.838-1.359-1.442v24.09h-5.8V665.661c1.669,0,3.363-.018,5.055.021a1.111,1.111,0,0,1,.691.455c4.18,5.428,8.335,10.876,12.521,16.3,1.669,2.162,3.405,4.272,5.4,6.769Z" transform="translate(2033.111 -436.467)" fill="#fafef9"/>
  <path id="Path_1627" data-name="Path 1627" d="M-1993.543,704.186h-5.827V678.817h5.777v3.816c2.243-2.861,4.65-4.573,7.983-4.543a8.263,8.263,0,0,1,7.439,4.25,52.643,52.643,0,0,1,4.815-3.33c3.114-1.7,8.251-1.153,10.762,1.691a8.671,8.671,0,0,1,2.248,5.556c.157,5.932.056,11.871.056,17.906h-5.9c0-4.728.03-9.4-.022-14.07a11.99,11.99,0,0,0-.484-3.359c-.763-2.482-2.384-3.441-5.27-3.332a5.226,5.226,0,0,0-4.616,3.82,13.155,13.155,0,0,0-.316,2.8c-.031,4.678-.015,9.356-.015,14.136h-5.907c0-3.354.059-6.666-.019-9.974a46.79,46.79,0,0,0-.52-7.438,4.2,4.2,0,0,0-4.167-3.36,5.013,5.013,0,0,0-5.365,3.169,9.692,9.692,0,0,0-.624,3.322C-1993.581,694.605-1993.543,699.334-1993.543,704.186Z" transform="translate(2078.431 -441.053)" fill="#fafef9"/>
  <path id="Path_1628" data-name="Path 1628" d="M-2088.656,699.343V665.62c4.134,0,8.2-.14,12.26.052a26.757,26.757,0,0,1,7.293,1.215c5.986,2.04,9.584,6.342,10.771,12.582a16.382,16.382,0,0,1-4.419,14.99,14.644,14.644,0,0,1-9.833,4.816C-2077.884,699.544-2083.206,699.343-2088.656,699.343Zm5.921-5.016c2.837,0,5.611.2,8.338-.073a12.1,12.1,0,0,0,5-1.683c4.223-2.615,5.6-6.764,5.094-11.471a10.867,10.867,0,0,0-4.306-7.827c-4.352-3.287-9.29-2.127-14.122-2.344Z" transform="translate(2111.473 -436.435)" fill="#fafef9"/>
  <path id="Path_1629" data-name="Path 1629" d="M-1910.536,704.227h-5.907V702.6c0-4.38.007-8.76,0-13.14-.006-2.277-.726-4.294-2.8-5.412a5.67,5.67,0,0,0-6.427.6,5.507,5.507,0,0,0-2.079,4.562c-.068,4.429-.023,8.86-.023,13.29v1.7h-5.795V678.809h5.77v3.578a31.864,31.864,0,0,1,3.647-3.057c4.36-2.649,12.167-1.321,13.252,5.855a67.324,67.324,0,0,1,.348,9C-1910.5,697.49-1910.536,700.8-1910.536,704.227Z" transform="translate(2054.078 -441.06)" fill="#fafef9"/>
  <path id="Path_1630" data-name="Path 1630" d="M-1674.212,684.088c4.207-6.457,13.163-6.14,16.55.293a29.157,29.157,0,0,1,3.773-3.354,9.561,9.561,0,0,1,10.078-.389c3.283,1.737,4.585,4.765,4.689,8.267.139,4.731.035,9.47.035,14.207v1.562h-2.279V703.11q0-6.953,0-13.905c0-4.4-2.622-7.482-6.806-7.694a7.432,7.432,0,0,0-8.108,6.67,73.963,73.963,0,0,0-.331,8.095c-.05,2.762-.011,5.526-.011,8.384h-2.279c0-1.086.017-2.133,0-3.179-.094-4.765-.048-9.541-.361-14.292a5.917,5.917,0,0,0-4.016-5.095,7.019,7.019,0,0,0-7.535,1.095,9.119,9.119,0,0,0-3.353,7.5c.036,4.626.01,9.254.01,13.976h-2.2V680.22h2.149Z" transform="translate(1958.895 -441.549)" fill="#fafef9"/>
  <path id="Path_1631" data-name="Path 1631" d="M-1818.474,704.635h-5.676v-25.4h5.676Z" transform="translate(2013.587 -441.493)" fill="#fafef9"/>
  <path id="Path_1632" data-name="Path 1632" d="M-1705.377,664.557v2.656h-2.684c.072-2.289-1.91-1.735-3.089-1.965a4.918,4.918,0,0,0-5.943,5.007c-.023,1.2,0,2.4,0,3.785h8.386v1.972h-8.36v22.652h-2.267V676.078h-3.6V674.1h3.387c.175-2.006.186-3.86.521-5.654.958-5.131,7.508-6.524,10.8-4.32C-1707.54,664.589-1706.425,664.419-1705.377,664.557Z" transform="translate(1976.132 -435.527)" fill="#fafef9"/>
  <path id="Path_1633" data-name="Path 1633" d="M-1685.265,698.82h-2.067V663.431h2.067Z" transform="translate(1962.955 -435.644)" fill="#fafef9"/>
  <path id="Path_1634" data-name="Path 1634" d="M-1696.785,705.169h-2.1V680.68h2.1Z" transform="translate(1967.229 -442.027)" fill="#fafef9"/>
  <path id="Path_1635" data-name="Path 1635" d="M-1824.694,669.443v-5.076h6.363v5.076Z" transform="translate(2013.788 -435.99)"/>
  <ellipse id="Ellipse_57" data-name="Ellipse 57" cx="110.719" cy="110.719" rx="110.719" ry="110.719" transform="translate(145.403 0)" fill="#fff"/>
  <ellipse id="Ellipse_58" data-name="Ellipse 58" cx="108.569" cy="108.569" rx="108.569" ry="108.569" transform="translate(0 0)" fill="#4f3a1b" opacity="0.86"/>
  <g id="Group_1253" data-name="Group 1253" transform="translate(79.061 64.397)">
    <path id="Path_1636" data-name="Path 1636" d="M-1999.37,445.472a31.441,31.441,0,0,1,2.807-9.162,23.532,23.532,0,0,1,22.746-12.648c7.22.689,12.635,4.507,16.831,10.245.118.161.239.319.368.471.028.033.093.033.234.079a2.776,2.776,0,0,0,.161-1.558q.016-13.368.011-26.737c0-.7.051-1.407.077-2.11h4.535c.026.653.077,1.306.077,1.96q.007,32.273-.015,64.546c0,.8.469,1.959-.487,2.326a6.336,6.336,0,0,1-3.72.025c-.6-.147-.457-.831-.46-1.312-.017-2.418,0-4.837-.02-7.256a2.327,2.327,0,0,0-.218-1.545,31.851,31.851,0,0,1-6.323,6.839,20.228,20.228,0,0,1-10.565,4.355c-7.927.852-14.505-1.835-19.87-7.592a24.2,24.2,0,0,1-5.943-12.645c-.061-.343-.15-.682-.226-1.023Zm27.043-17.276c-10.856.182-16.455,3.492-19.83,10.333a23.009,23.009,0,0,0-2.022,12.734c.578,5.872,2.809,10.825,7.525,14.518,8.286,6.489,19.845,4.367,26.169-3.7a21.288,21.288,0,0,0,4.338-15.819C-1957.112,436.163-1966,427.958-1972.327,428.2Z" transform="translate(1999.37 -404.052)" fill="#fff"/>
    <path id="Path_1637" data-name="Path 1637" d="M-1719.974,543.975c-.027-1.761-.075-3.521-.077-5.282-.009-7.955-.023-15.91,0-23.864a16.741,16.741,0,0,0-3.739-11.181,12.749,12.749,0,0,0-7.453-4.258,16.819,16.819,0,0,0-14.135,2.991,15.54,15.54,0,0,0-6.253,11.573c-.714,9.244-.138,18.507-.316,27.76-.014.754-.052,1.507-.079,2.261h-4.535c-.027-.5-.077-1-.077-1.505q-.007-22.281,0-44.562c0-2.078.009-2.078,2.1-2.086,2.6-.01,2.6-.01,2.6,2.643,0,1.511,0,3.021,0,4.532,0,.387.037.774.079,1.573a19.294,19.294,0,0,1,5.856-6.541c4.237-3.015,9-3.83,14.04-3.311a17.631,17.631,0,0,1,11.079,4.867,18.937,18.937,0,0,1,5.533,12.526c.03.445.142.884.215,1.327,0,9.826-.015,19.652.026,29.478,0,.9-.175,1.153-1.086,1.083C-1717.449,543.9-1718.714,543.975-1719.974,543.975Z" transform="translate(1909.542 -437.551)" fill="#60523a"/>
    <path id="Path_1638" data-name="Path 1638" d="M-1860.406,510.256c-2.348-.054-2.4-.1-1.478-1.87q8.821-16.91,17.671-33.8c2.937-5.609,5.9-11.2,8.835-16.813,2.564-4.9,5.1-9.807,7.666-14.707a3.519,3.519,0,0,1,3.943-1.245c.581.28.3.673.13,1q-3.494,6.678-7.016,13.343c-1.313,2.488-2.667,4.955-3.965,7.451-4.175,8.026-8.312,16.072-12.5,24.089-3.772,7.213-7.627,14.383-11.37,21.611A1.546,1.546,0,0,1-1860.406,510.256Z" transform="translate(1948.697 -417.953)" fill="#fff"/>
  </g>
</svg>
