<svg id="web" xmlns="http://www.w3.org/2000/svg" width="466.501" height="88.053" viewBox="0 0 466.501 88.053">
  <g id="Group_1248" data-name="Group 1248" transform="translate(0 0)">
    <g id="Group_1247" data-name="Group 1247" transform="translate(0 0)">
      <path id="Path_1566" data-name="Path 1566" d="M-5460.926,469.926c-.014,3.215-.039,6.431-.039,9.646q-.006,29.924,0,59.848v1.929c-3.391,0-6.643.04-9.892-.044a2.313,2.313,0,0,1-1.388-.964q-6.558-8.427-13.052-16.9c-3.158-4.117-6.262-8.274-9.431-12.382-3.928-5.092-7.9-10.149-11.849-15.225-1.293-1.663-2.567-3.341-4.066-5.293V541.23h-12.361c0-.557,0-1.184,0-1.81q0-33.768,0-67.536c0-.653-.026-1.306-.039-1.958h11.76a6.374,6.374,0,0,0,.543,1.037c4.679,6.01,9.388,12,14.052,18.016,3.964,5.118,7.88,10.273,11.818,15.412q5.41,7.061,10.827,14.116a4.412,4.412,0,0,0,.8.6c0-2.071,0-3.924,0-5.777l-.041-43.4Z" transform="translate(5839.978 -469.926)" fill="#fff"/>
      <path id="Path_1567" data-name="Path 1567" d="M-5840.436,567.636c-1.28-.214-2.557-.446-3.839-.64a43.188,43.188,0,0,1-16.322-5.886l4.291-8.883c3.061,1.263,5.983,2.724,9.063,3.686,5.963,1.862,12.044,2.4,18.111.364,5.127-1.723,8.007-5.479,8.883-10.67a47.288,47.288,0,0,0,.312-8.3c-2.643,2.849-5.266,5.564-8.74,7.179a23.558,23.558,0,0,1-20.1.192c-8.108-3.526-12.749-9.9-14.156-18.47-1.288-7.835.151-15.271,5.264-21.556a23.4,23.4,0,0,1,15.376-8.489,24.026,24.026,0,0,1,14.151,2.205,20.809,20.809,0,0,1,7.045,5.542c.279.339.565.673,1.133,1.346v-8.024h12.361v1.512c0,14.369.09,28.739-.044,43.107-.055,5.964-1.442,11.694-5.17,16.534a20.468,20.468,0,0,1-8.716,6.537,30.425,30.425,0,0,1-10.626,2.4c-.147,0-.288.2-.431.313Zm2.729-61.412c-4.022-.291-10.2,3.716-12.2,9.115-2.111,5.693-1.587,11.111,2.347,15.751,5.844,6.89,16.825,6.841,23.253,1.019a14.682,14.682,0,0,0,3.116-17.4C-5824.145,508.937-5829.218,506.494-5837.707,506.224Z" transform="translate(5966.485 -479.583)" fill="#fff"/>
      <path id="Path_1568" data-name="Path 1568" d="M-5747.8,567.636c-1.279-.214-2.556-.446-3.839-.64a43.18,43.18,0,0,1-16.322-5.886c1.478-3.06,2.933-6.071,4.291-8.883,3.06,1.263,5.983,2.724,9.063,3.686,5.963,1.862,12.044,2.4,18.111.364,5.127-1.724,8.007-5.479,8.883-10.67a47.335,47.335,0,0,0,.313-8.3c-2.643,2.849-5.266,5.564-8.74,7.179a23.554,23.554,0,0,1-20.1.192c-8.108-3.526-12.749-9.9-14.156-18.47-1.287-7.835.151-15.272,5.264-21.556a23.4,23.4,0,0,1,15.377-8.489,24.025,24.025,0,0,1,14.15,2.205,20.634,20.634,0,0,1,7.04,5.546c.281.342.511.726.764,1.091l.375-.229v-7.544h12.361v1.512c0,14.369.09,28.739-.043,43.107-.055,5.964-1.442,11.694-5.17,16.534a20.467,20.467,0,0,1-8.717,6.537,30.423,30.423,0,0,1-10.626,2.4c-.146,0-.288.2-.431.313Zm6.949-31.339a15.3,15.3,0,0,0,9.139-4.171,14.1,14.1,0,0,0,4.494-12.725c-.654-5.221-3.384-8.8-7.938-11.248a17.254,17.254,0,0,0-9.522-1.759,14.106,14.106,0,0,0-11.224,6.3,15.213,15.213,0,0,0-1.662,13.767C-5755.7,532.253-5749.858,536.376-5740.855,536.3Z" transform="translate(5932.052 -479.583)" fill="#fff"/>
      <path id="Path_1569" data-name="Path 1569" d="M-6027.484,530.839q2.451-2.5,4.9-4.994c1.088-1.111,2.175-2.224,2.73-2.793,1.614,1.286,3.247,2.428,4.693,3.77,4.515,4.189,12.244,5.65,17.186,1.969,2.7-2.009,3.762-4.9,4.262-8.013a39.135,39.135,0,0,0,.331-6.109q.038-21.469.012-42.938c0-.6-.025-1.2-.039-1.806h12.967q-.02,18.31-.04,36.619c0,4.069.134,8.144-.035,12.206a26.836,26.836,0,0,1-4.117,14.038,19.96,19.96,0,0,1-12.27,8.528,29.6,29.6,0,0,1-20.824-2.073,25.618,25.618,0,0,1-8.868-7.352,5.612,5.612,0,0,0-.888-.75Z" transform="translate(6027.484 -469.926)" fill="#fff"/>
      <path id="Path_1570" data-name="Path 1570" d="M-5305.251,531.358c.008,2.962.051,5.925-.011,8.886a1.822,1.822,0,0,1-.774,1.356,22.478,22.478,0,0,1-13.259,2.14,14.655,14.655,0,0,1-7.488-2.877,11.588,11.588,0,0,1-4.546-9.11c-.248-9.92-.251-19.846-.351-29.77-.007-.7,0-1.4,0-2.282h-6.835V489.183h6.791V474.491h12.268v14.621h14.575v10.555h-14.343a1.99,1.99,0,0,0-.144.427c-.012,9.034-.167,18.071.047,27.1.083,3.5,1.867,5.516,5.99,5.711A20.99,20.99,0,0,0-5305.251,531.358Z" transform="translate(5771.385 -471.623)" fill="#fff"/>
      <path id="Path_1571" data-name="Path 1571" d="M-5657.445,530.29c4.422,10.24,19.745,12.618,29.888,2.355l7.68,6.812c-2.174,1.815-4.249,3.577-6.355,5.3a22.975,22.975,0,0,1-10.092,4.343,30.807,30.807,0,0,1-17.133-1.148,26.455,26.455,0,0,1-14.322-11.9,34.805,34.805,0,0,1-3.792-11.725c-.487-2.791.281-5.132,1.029-7.56,2.248-7.293,5.6-13.975,11.236-19.315,4.405-4.172,9.482-6.744,15.69-6.511a18.822,18.822,0,0,1,9.092,2.889c6.3,3.814,10.465,9.48,13.338,16.1,1.494,3.44,2.466,7.105,3.723,10.651a2.912,2.912,0,0,1-.705,3.176,18.9,18.9,0,0,1-9.886,5.7c-2.246.535-4.537.876-6.806,1.311a2.932,2.932,0,0,1-3.175-1.218,3.526,3.526,0,0,0-3.224-1.551c-2.26.059-4.533-.119-6.778.074a4.732,4.732,0,0,0-2.823,1.327,3.709,3.709,0,0,1-4.033,1.247A21.647,21.647,0,0,0-5657.445,530.29Zm17.314-6.748a39.832,39.832,0,0,0,4.439-.749c1.113-.163,1.152-.665.726-1.55-.936-1.941-1.853-3.892-2.691-5.876a2.881,2.881,0,0,0-2.236-1.743c-1.376-.347-2.691-.935-4.048-1.373a1.969,1.969,0,0,0-1.123-.043,35.01,35.01,0,0,0-4.3,1.527,4.639,4.639,0,0,0-2,1.728,54.973,54.973,0,0,0-2.356,5.029c-.75,1.69-.5,2.177,1.4,2.369,2.582.261,5.175.41,7.763.608m10.6-15.937c-2.347.489-4.7.938-7.032,1.5-.463.112-1.208.772-1.148,1a2.445,2.445,0,0,0,1.1,1.5,14.437,14.437,0,0,0,2.9.714c4.429.96,3.2,1.568,5.579-2.406C-5631.8,508.568-5632.436,507.546-5633.957,507.532Zm-21.127.005c-1.337.007-2.042.988-1.5,2.124a20.891,20.891,0,0,0,1.585,2.723,1.253,1.253,0,0,0,.969.532c2.109-.419,4.218-.866,6.282-1.461.4-.114.689-.892.834-1.417.062-.224-.332-.79-.6-.853C-5650.05,508.588-5652.6,508.067-5655.084,507.537Z" transform="translate(5895.244 -477.734)" fill="#fff"/>
      <path id="Path_1572" data-name="Path 1572" d="M-5366.134,528.409h-39.417c1.043,6.21,4,11.006,10.074,12.849,7.6,2.306,14.265.107,19.919-5.549l7.239,6.383a26.677,26.677,0,0,1-15.115,9.382c-9.107,1.926-17.579.329-24.891-5.6a25.907,25.907,0,0,1-8.932-15.39,30.051,30.051,0,0,1,2.315-19.569c3.64-7.5,9.455-12.643,17.82-14.423,7.614-1.62,14.752-.344,20.973,4.368a23.393,23.393,0,0,1,8.769,13.595,99.067,99.067,0,0,1,1.539,10.842A15.359,15.359,0,0,1-5366.134,528.409Zm-12.041-8.181c-.506-7.281-4.907-13.546-12.179-14.209-9.771-.891-14.761,7.766-15.142,14.209Z" transform="translate(5800.909 -479.552)" fill="#fff"/>
      <path id="Path_1573" data-name="Path 1573" d="M-5896.053,551.719h-12.119V543.58c-1.3,1.458-2.336,2.739-3.492,3.9a18.28,18.28,0,0,1-10.533,5.252,20.328,20.328,0,0,1-13.572-2.494c-3.849-2.2-6.089-5.7-7.416-9.841a32.9,32.9,0,0,1-1.225-10.3c.039-10.049.014-20.1.014-30.147v-1.926h12.282v1.657c0,10-.067,20,.037,30a12.245,12.245,0,0,0,3.83,9.342,10.186,10.186,0,0,0,6.01,2.558c6.9.711,12.773-2.861,13.726-10.334a28.872,28.872,0,0,0,.289-3.555c.022-9.847.013-19.693.013-29.663h12.156Z" transform="translate(5996.605 -480.37)" fill="#fff"/>
      <path id="Path_1574" data-name="Path 1574" d="M-5563.909,551.144c-.536.024-.881.053-1.225.054-3.612,0-7.226,0-10.947,0V497.422h12.13v11.4c3.975-7.808,9.847-12.437,18.947-12.4v12.6c-2.1.389-4.2.679-6.244,1.172-5.392,1.3-8.814,4.863-10.836,9.858a28.009,28.009,0,0,0-1.833,10.759C-5563.889,537.531-5563.909,544.258-5563.909,551.144Z" transform="translate(5859.691 -479.774)" fill="#fff"/>
    </g>
  </g>
</svg>
