<svg xmlns="http://www.w3.org/2000/svg" width="304" height="292" viewBox="0 0 304 292">
  <g id="logo" transform="translate(11977.786 -5919.245)">
    <rect id="Rectangle_65" data-name="Rectangle 65" width="304" height="292" rx="146" transform="translate(-11977.786 5919.245)" fill="#fff"/>
    <g id="Group_28" data-name="Group 28" transform="translate(-11934.915 5998.797)">
      <g id="Group_26" data-name="Group 26" transform="translate(54.358 124.261)">
        <path id="Path_190" data-name="Path 190" d="M3417.59-185.811a2.208,2.208,0,0,1-.157-2.844,2.156,2.156,0,0,1,2.348-.665,1.8,1.8,0,0,1,1.386,1.629c-.123.033-.249.062-.373.1a.4.4,0,0,1-.583-.28,1.109,1.109,0,0,0-1.243-.724,1.174,1.174,0,0,0-.871,1.763,4.081,4.081,0,0,0,.787,1.01c.716.709,1.464,1.386,2.227,2.1a10.434,10.434,0,0,0,.355-1.046c.163-.7.146-.7.9-.619a4.277,4.277,0,0,1-.722,2.381l1.666,1.506-.117.216a3.807,3.807,0,0,1-1.208-.137,4.172,4.172,0,0,1-.937-.855c-.2.146-.393.3-.6.435a3.367,3.367,0,0,1-3.054.457,2.157,2.157,0,0,1-.878-3.559A9.321,9.321,0,0,1,3417.59-185.811Zm2.847,2.965-2.452-2.375a5.434,5.434,0,0,0-.837.956,1.473,1.473,0,0,0,1.241,2.228A2.571,2.571,0,0,0,3420.437-182.847Z" transform="translate(-3355.989 189.603)"/>
        <path id="Path_191" data-name="Path 191" d="M2833.971-184.83h1.938c2.382,0,3.659,1.384,3.659,3.845s-1.277,3.9-3.615,3.9h-1.981Zm1.865,6.938c1.811,0,2.713-1.135,2.713-3.093s-.9-3.037-2.713-3.037h-.88v6.13Z" transform="translate(-2833.971 185.492)"/>
        <path id="Path_192" data-name="Path 192" d="M2897.265-188.328a.625.625,0,0,1,.671-.627.624.624,0,0,1,.67.627.632.632,0,0,1-.67.627A.634.634,0,0,1,2897.265-188.328Zm.178,1.806h.971v5.737h-.971Z" transform="translate(-2890.748 189.193)"/>
        <path id="Path_193" data-name="Path 193" d="M2918.375-159.711a1.612,1.612,0,0,1,.841-1.3v-.047a1.063,1.063,0,0,1-.512-.94,1.377,1.377,0,0,1,.63-1.065v-.047a2,2,0,0,1-.742-1.541,2.037,2.037,0,0,1,2.153-2.043,2.349,2.349,0,0,1,.81.141h2v.748h-1.178a1.652,1.652,0,0,1,.467,1.181,1.961,1.961,0,0,1-2.1,1.989,2.039,2.039,0,0,1-.855-.195.841.841,0,0,0-.366.678c0,.364.237.623,1.006.623h1.116c1.333,0,2,.419,2,1.37,0,1.066-1.128,1.984-2.9,1.984C2919.344-158.173,2918.375-158.724,2918.375-159.711Zm4.324-.3c0-.531-.4-.712-1.156-.712h-.99a3.264,3.264,0,0,1-.745-.086,1.2,1.2,0,0,0-.584.962c0,.616.62,1.006,1.662,1.006C2921.98-158.842,2922.7-159.413,2922.7-160.012Zm-.734-4.637a1.227,1.227,0,0,0-1.22-1.34,1.222,1.222,0,0,0-1.219,1.34,1.254,1.254,0,0,0,1.219,1.363A1.256,1.256,0,0,0,2921.964-164.649Z" transform="translate(-2909.685 169.222)"/>
        <path id="Path_194" data-name="Path 194" d="M2974.054-188.328a.624.624,0,0,1,.67-.627.625.625,0,0,1,.671.627.633.633,0,0,1-.671.627A.633.633,0,0,1,2974.054-188.328Zm.178,1.806h.971v5.737h-.971Z" transform="translate(-2959.632 189.193)"/>
        <path id="Path_195" data-name="Path 195" d="M2993.6-175.373v-3.173h-.854v-.735l.9-.056.116-1.609h.812v1.609h1.554v.791h-1.554v3.189c0,.7.226,1.108.887,1.108a1.921,1.921,0,0,0,.653-.154l.188.732a3.45,3.45,0,0,1-1.064.212C2994.017-173.457,2993.6-174.231,2993.6-175.373Z" transform="translate(-2976.402 182.007)"/>
        <path id="Path_196" data-name="Path 196" d="M3027.682-162.3c0-1.249,1.078-1.874,3.522-2.14,0-.738-.247-1.449-1.184-1.449a3.167,3.167,0,0,0-1.711.615l-.38-.665a4.206,4.206,0,0,1,2.253-.749c1.4,0,1.993.931,1.993,2.359v3.52h-.8l-.082-.686h-.032a3.048,3.048,0,0,1-1.9.828A1.56,1.56,0,0,1,3027.682-162.3Zm3.522.09v-1.593c-1.921.231-2.571.7-2.571,1.435,0,.652.442.917,1,.917A2.356,2.356,0,0,0,3031.2-162.213Z" transform="translate(-3007.738 169.222)"/>
        <path id="Path_197" data-name="Path 197" d="M3084.313-184.007v-7.256h.971v7.327c0,.3.13.415.271.415a.841.841,0,0,0,.213-.024l.131.741a1.555,1.555,0,0,1-.559.091C3084.614-182.713,3084.313-183.177,3084.313-184.007Z" transform="translate(-3058.539 191.263)"/>
        <path id="Path_198" data-name="Path 198" d="M3127.291-166.551h.8l.082.832h.032a2.551,2.551,0,0,1,1.786-.973,1.513,1.513,0,0,1,1.583,1.093,2.711,2.711,0,0,1,1.892-1.093c1.18,0,1.746.78,1.746,2.244v3.635h-.972v-3.51c0-1.069-.337-1.526-1.067-1.526a2.1,2.1,0,0,0-1.437.881v4.155h-.971v-3.51c0-1.069-.34-1.526-1.068-1.526a2.129,2.129,0,0,0-1.437.881v4.155h-.972Z" transform="translate(-3097.092 169.222)"/>
        <path id="Path_199" data-name="Path 199" d="M3213.579-163.675a2.766,2.766,0,0,1,2.579-3.017c1.463,0,2.289,1.051,2.289,2.692a3.045,3.045,0,0,1-.045.551h-3.863a1.907,1.907,0,0,0,1.906,2,2.506,2.506,0,0,0,1.428-.459l.348.637a3.374,3.374,0,0,1-1.895.6A2.743,2.743,0,0,1,3213.579-163.675Zm4.011-.469c0-1.15-.517-1.774-1.414-1.774a1.76,1.76,0,0,0-1.646,1.774Z" transform="translate(-3174.496 169.222)"/>
        <path id="Path_200" data-name="Path 200" d="M3266.013-185.716c0-1.861,1.174-3.017,2.482-3.017a2.347,2.347,0,0,1,1.607.665l-.04-.984v-2.21h.97v8.408h-.8l-.082-.677h-.032a2.537,2.537,0,0,1-1.74.819C3266.942-182.713,3266.013-183.8,3266.013-185.716Zm4.05,1.4v-3.007a2.021,2.021,0,0,0-1.4-.6c-.917,0-1.646.885-1.646,2.192,0,1.376.568,2.194,1.574,2.194A1.984,1.984,0,0,0,3270.063-184.313Z" transform="translate(-3221.531 191.263)"/>
        <path id="Path_201" data-name="Path 201" d="M3327.281-188.328a.625.625,0,0,1,.671-.627.624.624,0,0,1,.67.627.633.633,0,0,1-.67.627A.633.633,0,0,1,3327.281-188.328Zm.178,1.806h.971v5.737h-.971Z" transform="translate(-3276.491 189.193)"/>
        <path id="Path_202" data-name="Path 202" d="M3349.164-162.3c0-1.249,1.079-1.874,3.524-2.14,0-.738-.247-1.449-1.185-1.449a3.164,3.164,0,0,0-1.711.615l-.38-.665a4.21,4.21,0,0,1,2.254-.749c1.4,0,1.992.931,1.992,2.359v3.52h-.8l-.081-.686h-.033a3.044,3.044,0,0,1-1.9.828A1.56,1.56,0,0,1,3349.164-162.3Zm3.524.09v-1.593c-1.923.231-2.573.7-2.573,1.435,0,.652.442.917,1.006.917A2.36,2.36,0,0,0,3352.688-162.213Z" transform="translate(-3296.121 169.222)"/>
        <path id="Path_203" data-name="Path 203" d="M3508.581-183.447h-.032l-.092.593h-.775v-8.408h.971v2.3l-.032,1.029a2.9,2.9,0,0,1,1.8-.8c1.481,0,2.279,1.15,2.279,2.919,0,1.96-1.175,3.1-2.485,3.1A2.561,2.561,0,0,1,3508.581-183.447Zm3.117-2.354c0-1.266-.432-2.115-1.512-2.115a2.33,2.33,0,0,0-1.534.783v3.007a2.211,2.211,0,0,0,1.4.6C3511-183.53,3511.7-184.385,3511.7-185.8Z" transform="translate(-3438.318 191.263)"/>
        <path id="Path_204" data-name="Path 204" d="M3566.476-166.551h.8l.083,1.045h.031a1.975,1.975,0,0,1,1.631-1.186,1.335,1.335,0,0,1,.613.118l-.183.852a1.584,1.584,0,0,0-.555-.095c-.485,0-1.064.349-1.452,1.32v3.684h-.971Z" transform="translate(-3491.06 169.222)"/>
        <path id="Path_205" data-name="Path 205" d="M3595.459-162.3c0-1.249,1.079-1.874,3.523-2.14,0-.738-.247-1.449-1.184-1.449a3.162,3.162,0,0,0-1.711.615l-.381-.665a4.21,4.21,0,0,1,2.254-.749c1.4,0,1.992.931,1.992,2.359v3.52h-.8l-.082-.686h-.033a3.041,3.041,0,0,1-1.9.828A1.56,1.56,0,0,1,3595.459-162.3Zm3.523.09v-1.593c-1.923.231-2.573.7-2.573,1.435,0,.652.442.917,1.006.917A2.358,2.358,0,0,0,3598.982-162.213Z" transform="translate(-3517.059 169.222)"/>
        <path id="Path_206" data-name="Path 206" d="M3652.089-166.551h.8l.082.828h.032a2.74,2.74,0,0,1,1.925-.969c1.208,0,1.75.78,1.75,2.244v3.635h-.971v-3.51c0-1.069-.322-1.526-1.081-1.526a2.179,2.179,0,0,0-1.569.881v4.155h-.971Z" transform="translate(-3567.859 169.222)"/>
        <path id="Path_207" data-name="Path 207" d="M3706.231-185.716c0-1.861,1.173-3.017,2.481-3.017a2.347,2.347,0,0,1,1.607.665l-.041-.984v-2.21h.971v8.408h-.8l-.081-.677h-.033a2.533,2.533,0,0,1-1.74.819C3707.161-182.713,3706.231-183.8,3706.231-185.716Zm4.048,1.4v-3.007a2.017,2.017,0,0,0-1.4-.6c-.917,0-1.647.885-1.647,2.192,0,1.376.568,2.194,1.576,2.194A1.977,1.977,0,0,0,3710.279-184.313Z" transform="translate(-3616.426 191.263)"/>
        <path id="Path_208" data-name="Path 208" d="M3767.5-188.328a.625.625,0,0,1,.672-.627.624.624,0,0,1,.67.627.633.633,0,0,1-.67.627A.634.634,0,0,1,3767.5-188.328Zm.178,1.806h.971v5.737h-.971Z" transform="translate(-3671.386 189.193)"/>
        <path id="Path_209" data-name="Path 209" d="M3792.833-166.551h.8l.081.828h.032a2.738,2.738,0,0,1,1.925-.969c1.208,0,1.751.78,1.751,2.244v3.635h-.971v-3.51c0-1.069-.322-1.526-1.083-1.526a2.178,2.178,0,0,0-1.568.881v4.155h-.971Z" transform="translate(-3694.112 169.222)"/>
        <path id="Path_210" data-name="Path 210" d="M3846.716-159.711a1.612,1.612,0,0,1,.841-1.3v-.047a1.062,1.062,0,0,1-.513-.94,1.378,1.378,0,0,1,.631-1.065v-.047a2,2,0,0,1-.743-1.541,2.037,2.037,0,0,1,2.153-2.043,2.355,2.355,0,0,1,.811.141h2v.748h-1.179a1.653,1.653,0,0,1,.468,1.181,1.961,1.961,0,0,1-2.1,1.989,2.031,2.031,0,0,1-.854-.195.836.836,0,0,0-.366.678c0,.364.236.623,1,.623h1.117c1.333,0,2,.419,2,1.37,0,1.066-1.128,1.984-2.9,1.984C3847.685-158.173,3846.716-158.724,3846.716-159.711Zm4.323-.3c0-.531-.4-.712-1.155-.712h-.99a3.258,3.258,0,0,1-.745-.086,1.194,1.194,0,0,0-.586.962c0,.616.621,1.006,1.664,1.006C3850.32-158.842,3851.039-159.413,3851.039-160.012Zm-.735-4.637a1.226,1.226,0,0,0-1.219-1.34,1.223,1.223,0,0,0-1.22,1.34,1.255,1.255,0,0,0,1.22,1.363A1.255,1.255,0,0,0,3850.3-164.649Z" transform="translate(-3742.447 169.222)"/>
      </g>
      <path id="Path_211" data-name="Path 211" d="M2306.006-867.639c8.319,0,16.637-.025,24.956.014a34.546,34.546,0,0,1,15.224,3.4,28.872,28.872,0,0,1,14.019,14.4,32.471,32.471,0,0,1,2.7,10.34,35.164,35.164,0,0,1-1.478,14.575,28.778,28.778,0,0,1-15.2,17.523,33.539,33.539,0,0,1-13.3,3.339c-.921.044-1.843.072-2.764.072q-12.077.01-24.153.006Zm13.3,53.333h.582c3.363,0,6.725.018,10.087-.01a34.2,34.2,0,0,0,3.78-.209,17.071,17.071,0,0,0,7.773-2.889,17.414,17.414,0,0,0,6.791-9.659,30.479,30.479,0,0,0,.39-16.074,18.538,18.538,0,0,0-4.771-8.98,17.289,17.289,0,0,0-12.271-5.13c-4.028-.115-8.062-.037-12.094-.042a2.08,2.08,0,0,0-.266.035Z" transform="translate(-2306.006 922.269)"/>
      <path id="Path_212" data-name="Path 212" d="M3228.774-1342.832c-.006.179-.015.357-.015.535q0,17.968,0,35.936v.6a15.925,15.925,0,0,0,3.39-.182,2.777,2.777,0,0,0,1.465-1.046q2.146-2.822,4.271-5.663,3-4,5.989-8a4.715,4.715,0,0,1,4-2.046c3.587.012,7.172,0,10.76,0,.1,0,.2.014.364.027-.642.817-1.243,1.585-1.845,2.351q-5.757,7.311-11.512,14.62a11.639,11.639,0,0,1-3.125,2.738c2.254,1.652,3.409,4.1,4.849,6.324,4.028,6.211,8.007,12.453,12.006,18.684.084.134.161.273.278.475h-.488q-5.29,0-10.58,0a4.3,4.3,0,0,1-3.98-2.219c-3.331-5.54-6.741-11.033-10.1-16.56a2.954,2.954,0,0,0-2.734-1.585c-.979.012-1.96,0-2.99,0v20.33h-12.148v-65.326Z" transform="translate(-3122.875 1348.531)"/>
      <path id="Path_213" data-name="Path 213" d="M3256.917-650.614H3244.85v-.581q0-14.172,0-28.345a9.891,9.891,0,0,0-.741-3.96,5.891,5.891,0,0,0-5.376-3.71c-3.437-.259-6.271,1.1-8.856,3.22a2.513,2.513,0,0,0-1,2.185c.038,10.177.023,20.355.023,30.533v.647h-12.061v-45.179h.487q3.415,0,6.828,0a2.93,2.93,0,0,1,3.234,2.554c.21.866.417,1.732.643,2.672l.435-.4a19.714,19.714,0,0,1,6.963-4.479,17.092,17.092,0,0,1,13.235.445,13.588,13.588,0,0,1,7.165,8.417,21.913,21.913,0,0,1,1.091,7.061q0,14.24,0,28.479Z" transform="translate(-3123.059 768.805)"/>
      <path id="Path_214" data-name="Path 214" d="M3645.313-671.159c.432,3.619,1.145,7.027,3.951,9.564a10.6,10.6,0,0,0,6.272,2.594,16.4,16.4,0,0,0,9.887-2.378c.543-.307,1.1-.593,1.656-.869a3.718,3.718,0,0,1,2.715-.416,2.882,2.882,0,0,1,1.353.779c1.267,1.478,2.454,3.023,3.69,4.568a17.7,17.7,0,0,1-3.113,2.933,22.583,22.583,0,0,1-10.523,4.2,42.215,42.215,0,0,1-5.687.4,22.349,22.349,0,0,1-13.068-3.926,20.643,20.643,0,0,1-7.535-10.048,28.81,28.81,0,0,1-1.6-11.846,21.9,21.9,0,0,1,5.7-14.042,20.286,20.286,0,0,1,10.931-6.164,23.558,23.558,0,0,1,12.713.623,17.436,17.436,0,0,1,11.534,12.123,24.835,24.835,0,0,1,.894,9.311,4.711,4.711,0,0,1-.128.745,2.042,2.042,0,0,1-2.255,1.839c-.165.008-.328,0-.491,0h-26.9Zm.111-7.253H3664.4c-.1-.836-.156-1.635-.294-2.419a8.371,8.371,0,0,0-2.374-4.695,8.087,8.087,0,0,0-5.07-2.248,11.373,11.373,0,0,0-5.3.668,8.678,8.678,0,0,0-4.928,5.34C3646.022-680.694,3645.764-679.564,3645.424-678.412Z" transform="translate(-3496.603 768.644)"/>
      <path id="Path_215" data-name="Path 215" d="M3634.792-1135.849a22.209,22.209,0,0,0-.391-5.828c-.811-2.984-3-4.586-6.208-4.69a14.253,14.253,0,0,0-7.467,1.883q-1.15.634-2.311,1.253a5.182,5.182,0,0,1-3.2.538,4.071,4.071,0,0,1-2.915-2.154c-.7-1.139-1.3-2.334-1.971-3.494-.154-.269-.086-.408.124-.593a26.955,26.955,0,0,1,12.412-6.226,29.263,29.263,0,0,1,8.827-.543,15.693,15.693,0,0,1,13.977,11.133,21.038,21.038,0,0,1,.958,6.411q.015,13.974,0,27.946v.465c-.168.011-.3.027-.426.027-1.83,0-3.661.008-5.491,0a8.849,8.849,0,0,1-1.2-.115,2.923,2.923,0,0,1-2.4-2.077c-.335-.888-.616-1.8-.923-2.7-.046-.136-.1-.27-.164-.448-.614.5-1.193.984-1.779,1.456a19.054,19.054,0,0,1-7.289,3.913,19.14,19.14,0,0,1-12.046-.5,10.5,10.5,0,0,1-6.661-8.359,11.778,11.778,0,0,1,1.035-7.845,12.31,12.31,0,0,1,4.266-4.47,26.005,26.005,0,0,1,7.5-3.217,45.978,45.978,0,0,1,9.575-1.536C3632-1135.707,3633.362-1135.77,3634.792-1135.849Zm-.017,7.287a.889.889,0,0,0-.147-.025,47.636,47.636,0,0,0-8.141.944,12.817,12.817,0,0,0-4.929,1.971,4.491,4.491,0,0,0-1.956,3.942c.047,2.246.987,3.619,3.021,4.209a11.284,11.284,0,0,0,5.736-.016,12.992,12.992,0,0,0,6.273-3.9.731.731,0,0,0,.158-.477c.01-2.113.006-4.226.006-6.339C3634.8-1128.356,3634.783-1128.456,3634.775-1128.562Z" transform="translate(-3473.959 1180.777)"/>
      <path id="Path_216" data-name="Path 216" d="M3980.249-1087.507c.895-1.911,1.768-3.779,2.643-5.646q2.845-6.071,5.7-12.139a.945.945,0,0,0,.013-.875q-6.151-14.058-12.284-28.124-2.763-6.328-5.524-12.656c-.041-.092-.072-.187-.139-.363h.518q5,0,10,0a3.373,3.373,0,0,1,3.571,2.449c2.771,6.983,5.569,13.954,8.312,20.948.681,1.737,1.186,3.543,1.772,5.32.021-.048.066-.128.1-.213q3.047-8.345,6.093-16.69c1.159-3.164,2.338-6.321,3.508-9.481a3.288,3.288,0,0,1,3.22-2.316c3.185-.055,6.368-.016,9.553-.015a1.654,1.654,0,0,1,.229.04c-.053.153-.091.289-.146.419q-5.81,13.671-11.621,27.343l-9.98,23.491c-.848,2-1.711,3.983-2.546,5.984a3.741,3.741,0,0,1-3.734,2.563c-3.02-.016-6.041,0-9.062-.006A1.41,1.41,0,0,1,3980.249-1087.507Z" transform="translate(-3799.268 1173.148)"/>
      <g id="Group_27" data-name="Group 27" transform="translate(26.166 0)">
        <path id="Path_217" data-name="Path 217" d="M73.071,33.964A28.055,28.055,0,0,0,72.6,30.4a31.251,31.251,0,0,0-2.109-7.514,34.52,34.52,0,0,0-2.415-4.881,40.766,40.766,0,0,0-3.485-4.931,32.444,32.444,0,0,0-4.18-4.238,36,36,0,0,0-4.434-3.254,42.027,42.027,0,0,0-5.4-2.8A34.525,34.525,0,0,0,44.733.9,39.89,39.89,0,0,0,39.753.123,50.234,50.234,0,0,0,34.584.014,19.81,19.81,0,0,0,30.93.434a35.392,35.392,0,0,0-4.318.9A51.724,51.724,0,0,0,21.294,3.32a37.034,37.034,0,0,0-4.728,2.6,35.032,35.032,0,0,0-5.121,4.066A35.681,35.681,0,0,0,6.828,15.3a36.927,36.927,0,0,0-4.6,8.7A37.6,37.6,0,0,0,.833,28.75a40.171,40.171,0,0,0-.777,5.624C-.055,35.83.033,37.281.033,38.733a25.42,25.42,0,0,0,.5,4.1,30.385,30.385,0,0,0,1.209,5.079c.437,1.255.924,2.5,1.472,3.714a36.049,36.049,0,0,0,8.757,11.938,37.185,37.185,0,0,0,6.876,4.9,36.547,36.547,0,0,0,4.742,2.2c.308.117.559.256.627.639.635,3.6,1.3,7.2,1.923,10.8a9.173,9.173,0,0,0,1.294,3.7,7.431,7.431,0,0,0,3.132,2.629,7.011,7.011,0,0,0,3.583.619c1.241-.116,2.456-.4,3.68-.617,5.3-.951,10.605-1.9,15.9-2.878a17.974,17.974,0,0,0,4.5-1.056,7.246,7.246,0,0,0,2.974-2.533,7.472,7.472,0,0,0,1.116-5.78c-.709-3.788-1.372-7.585-2.065-11.376a.653.653,0,0,1,.213-.689c.344-.3.683-.6,1.011-.916a37.9,37.9,0,0,0,6.782-8.568,36.6,36.6,0,0,0,4.1-10.7,34.357,34.357,0,0,0,.758-6.262A27.923,27.923,0,0,0,73.071,33.964ZM25.447,20.978a26.92,26.92,0,0,0-5.609,6.286l-.253.462-.178-.5a16.609,16.609,0,0,0-5.895-7.755c-.127-.094-.21-.157-.262-.2-.217-.19-.928-.084-1.341.048l-.144-.452c.213-.068,1.3-.385,1.8.048.038.033.124.1.233.178a17.915,17.915,0,0,1,2.763,2.488,16.6,16.6,0,0,1,3.123,5.028,29.81,29.81,0,0,1,5.429-5.968,54.772,54.772,0,0,1,8.479-6.011A81.058,81.058,0,0,1,47.062,8.463l.16.447C36.089,12.89,29.235,17.67,25.447,20.978Z" transform="translate(0 0)" fill="#ffad00"/>
        <path id="Path_218" data-name="Path 218" d="M3.1,8.239c2.917-.478,5.828-1,8.738-1.519,4.119-.739,8.235-1.5,12.352-2.244,2.849-.518,5.7-1.018,8.547-1.56a5.444,5.444,0,0,0,2.654-1.227c.585-.521.441-1.126-.293-1.39a4.154,4.154,0,0,0-1.668-.29,7.99,7.99,0,0,0-1.161.057Q23.221,1.695,14.177,3.318C10.4,4,6.627,4.679,2.859,5.4A5,5,0,0,0,.213,6.721a.629.629,0,0,0-.192.648.866.866,0,0,0,.7.643A5.154,5.154,0,0,0,3.1,8.239Z" transform="translate(30.539 97.413)" fill="#ffad00"/>
        <path id="Path_219" data-name="Path 219" d="M33.855.366a4.963,4.963,0,0,0-3-.252c-2.8.447-5.59.963-8.381,1.465Q16.073,2.729,9.671,3.9c-2.357.431-4.731.781-7.064,1.336A4.423,4.423,0,0,0,.264,6.468.691.691,0,0,0,.5,7.676a6.507,6.507,0,0,0,2.178.4c.212-.023.425-.034.633-.071Q11.19,6.591,19.072,5.17c4.09-.736,8.184-1.453,12.27-2.214a4.914,4.914,0,0,0,2.737-1.339C34.568,1.11,34.489.669,33.855.366Z" transform="translate(31.89 100.564)" fill="#ffad00"/>
        <path id="Path_220" data-name="Path 220" d="M.24,6.475A.664.664,0,0,0,.42,7.606a3.5,3.5,0,0,0,.629.256,5.561,5.561,0,0,0,2.7.044q5.423-.944,10.839-1.929Q22.762,4.5,30.93,3.011a5.6,5.6,0,0,0,3.112-1.38c.553-.553.432-1.066-.316-1.337A3.817,3.817,0,0,0,32.087.013a8.322,8.322,0,0,0-1.279.062Q25.7,1,20.6,1.9C16.479,2.646,12.36,3.382,8.244,4.14c-1.894.349-3.807.6-5.675,1.075A4.517,4.517,0,0,0,.24,6.475Z" transform="translate(30.515 94.493)" fill="#ffad00"/>
        <path id="Path_221" data-name="Path 221" d="M.63,7.311a6.905,6.905,0,0,0,1.875.324c.362-.043.726-.069,1.084-.132Q10.531,6.265,17.47,5.017q2.6-.466,5.192-.938c2.088-.382,4.181-.742,6.26-1.169A4.275,4.275,0,0,0,31.311,1.68a.718.718,0,0,0-.2-1.255A4.136,4.136,0,0,0,28.5.065C26.327.4,24.166.812,22,1.2Q15.064,2.456,8.127,3.719c-1.865.339-3.733.661-5.591,1.032a4.579,4.579,0,0,0-2.164,1.1A.8.8,0,0,0,.63,7.311Z" transform="translate(31.344 91.615)" fill="#ffad00"/>
        <path id="Path_222" data-name="Path 222" d="M30.989.314a3.086,3.086,0,0,0-1.632-.3,13.779,13.779,0,0,0-3.2.4q-7.949,1.417-15.89,2.876c-2.491.453-4.985.891-7.47,1.378A4.585,4.585,0,0,0,.361,5.822C-.2,6.38-.1,6.975.636,7.277a4.653,4.653,0,0,0,2.6.252c4.928-.867,9.85-1.767,14.774-2.654,3.492-.629,6.986-1.244,10.476-1.884a5.178,5.178,0,0,0,2.765-1.284C31.79,1.181,31.684.626,30.989.314Z" transform="translate(33.856 103.88)" fill="#ffad00"/>
        <path id="Path_223" data-name="Path 223" d="M.305,5.282A.838.838,0,0,0,.522,6.7a3.123,3.123,0,0,0,1.624.342A5.54,5.54,0,0,0,3.6,6.922q5.443-.963,10.88-1.954,5.35-.966,10.7-1.939a5.62,5.62,0,0,0,2.574-1.068.91.91,0,0,0-.277-1.7A5.093,5.093,0,0,0,24.834.1q-3.94.709-7.878,1.426Q9.881,2.8,2.806,4.067A4.8,4.8,0,0,0,.305,5.282Z" transform="translate(32.483 88.83)" fill="#ffad00"/>
        <path id="Path_224" data-name="Path 224" d="M27.641.334a4.489,4.489,0,0,0-2.72-.228Q18.741,1.2,12.564,2.322,7.907,3.159,3.252,4A5.329,5.329,0,0,0,.328,5.251a.862.862,0,0,0,.284,1.5A6.6,6.6,0,0,0,2.487,7.1c.176-.022.358-.035.536-.067Q11.485,5.5,19.944,3.96c2.014-.368,4.046-.636,6.041-1.1a4.031,4.031,0,0,0,1.893-1.037A.832.832,0,0,0,27.641.334Z" transform="translate(36.076 107.192)" fill="#ffad00"/>
        <path id="Path_225" data-name="Path 225" d="M2.061,5.907c.112-.017.233-.032.352-.053q3.918-.7,7.835-1.406c2.82-.51,5.641-1.018,8.457-1.547a2.487,2.487,0,0,0,1.789-1.135A.934.934,0,0,0,20.2.453,2.466,2.466,0,0,0,18.337.041Q10.124,1.527,1.905,2.988A2.745,2.745,0,0,0,.332,3.9,1.008,1.008,0,0,0,.564,5.547,3.779,3.779,0,0,0,2.061,5.907Z" transform="translate(35.872 86.329)" fill="#ffad00"/>
        <path id="Path_226" data-name="Path 226" d="M20.212.418a2.916,2.916,0,0,0-2.193-.35Q10.671,1.375,3.329,2.71a6.85,6.85,0,0,0-2.4.659c-.863.514-1.194,1.312-.7,1.843a1.965,1.965,0,0,0,1.761.663c5.677-.994,11.347-2.028,17.019-3.052a2.4,2.4,0,0,0,1.385-.89,1,1,0,0,0,.255-.667A.958.958,0,0,0,20.212.418Z" transform="translate(40.275 110.887)" fill="#ffad00"/>
      </g>
    </g>
  </g>
</svg>
