<?xml version="1.0" standalone="no"?>
<svg xmlns:xlink="http://www.w3.org/1999/xlink" id="wave" style="transform:rotate(0deg); transition: 0.3s" viewBox="0 0 1440 300" version="1.1" xmlns="http://www.w3.org/2000/svg"><defs><linearGradient id="sw-gradient-0" x1="0" x2="0" y1="1" y2="0"><stop stop-color="rgba(243, 106, 62, 1)" offset="0%"/><stop stop-color="rgba(255, 179, 11, 1)" offset="100%"/></linearGradient></defs><path style="transform:translate(0, 0px); opacity:1" fill="url(#sw-gradient-0)" d="M0,210L26.7,220C53.3,230,107,250,160,215C213.3,180,267,90,320,55C373.3,20,427,40,480,70C533.3,100,587,140,640,140C693.3,140,747,100,800,105C853.3,110,907,160,960,150C1013.3,140,1067,70,1120,75C1173.3,80,1227,160,1280,185C1333.3,210,1387,180,1440,150C1493.3,120,1547,90,1600,80C1653.3,70,1707,80,1760,100C1813.3,120,1867,150,1920,145C1973.3,140,2027,100,2080,110C2133.3,120,2187,180,2240,215C2293.3,250,2347,260,2400,260C2453.3,260,2507,250,2560,205C2613.3,160,2667,80,2720,50C2773.3,20,2827,40,2880,40C2933.3,40,2987,20,3040,55C3093.3,90,3147,180,3200,215C3253.3,250,3307,230,3360,205C3413.3,180,3467,150,3520,115C3573.3,80,3627,40,3680,20C3733.3,0,3787,0,3813,0L3840,0L3840,300L3813.3,300C3786.7,300,3733,300,3680,300C3626.7,300,3573,300,3520,300C3466.7,300,3413,300,3360,300C3306.7,300,3253,300,3200,300C3146.7,300,3093,300,3040,300C2986.7,300,2933,300,2880,300C2826.7,300,2773,300,2720,300C2666.7,300,2613,300,2560,300C2506.7,300,2453,300,2400,300C2346.7,300,2293,300,2240,300C2186.7,300,2133,300,2080,300C2026.7,300,1973,300,1920,300C1866.7,300,1813,300,1760,300C1706.7,300,1653,300,1600,300C1546.7,300,1493,300,1440,300C1386.7,300,1333,300,1280,300C1226.7,300,1173,300,1120,300C1066.7,300,1013,300,960,300C906.7,300,853,300,800,300C746.7,300,693,300,640,300C586.7,300,533,300,480,300C426.7,300,373,300,320,300C266.7,300,213,300,160,300C106.7,300,53,300,27,300L0,300Z"/></svg>